G04 #@! TF.GenerationSoftware,KiCad,Pcbnew,(5.1.0)-1*
G04 #@! TF.CreationDate,2019-04-09T15:10:56+02:00*
G04 #@! TF.ProjectId,WiFi Environment Sensor Node,57694669-2045-46e7-9669-726f6e6d656e,rev?*
G04 #@! TF.SameCoordinates,Original*
G04 #@! TF.FileFunction,Copper,L1,Top*
G04 #@! TF.FilePolarity,Positive*
%FSLAX46Y46*%
G04 Gerber Fmt 4.6, Leading zero omitted, Abs format (unit mm)*
G04 Created by KiCad (PCBNEW (5.1.0)-1) date 2019-04-09 15:10:56*
%MOMM*%
%LPD*%
G04 APERTURE LIST*
%ADD10R,1.250000X1.000000*%
%ADD11R,0.350000X0.500000*%
%ADD12R,0.900000X0.350000*%
%ADD13R,1.000000X0.350000*%
%ADD14R,0.550000X0.300000*%
%ADD15R,2.500000X1.000000*%
%ADD16R,1.000000X1.800000*%
%ADD17R,1.700000X1.700000*%
%ADD18O,1.700000X1.700000*%
%ADD19R,1.175000X1.900000*%
%ADD20R,2.375000X1.900000*%
%ADD21R,1.475000X2.100000*%
%ADD22R,0.450000X1.380000*%
%ADD23R,0.650000X1.060000*%
%ADD24R,1.500000X0.900000*%
%ADD25O,1.500000X0.900000*%
%ADD26R,1.000000X1.250000*%
%ADD27R,2.500000X1.800000*%
%ADD28R,1.200000X1.200000*%
%ADD29R,0.700000X1.300000*%
%ADD30R,1.300000X1.550000*%
%ADD31C,0.800000*%
%ADD32C,0.250000*%
G04 APERTURE END LIST*
D10*
X135890000Y-108680000D03*
X135890000Y-106680000D03*
D11*
X116545000Y-84845000D03*
X115895000Y-84845000D03*
X115245000Y-84845000D03*
X114595000Y-84845000D03*
X114595000Y-82795000D03*
X115245000Y-82795000D03*
X115895000Y-82795000D03*
X116545000Y-82795000D03*
D12*
X116520000Y-90740000D03*
X116520000Y-91440000D03*
X114620000Y-91440000D03*
D13*
X114670000Y-90740000D03*
D14*
X114745000Y-88915000D03*
X114745000Y-88265000D03*
X114745000Y-87665000D03*
X116495000Y-87615000D03*
X116495000Y-88265000D03*
X116495000Y-88915000D03*
D15*
X138410000Y-88575000D03*
X138410000Y-90575000D03*
X138410000Y-92575000D03*
X138410000Y-94575000D03*
X138410000Y-96575000D03*
X138410000Y-98575000D03*
X138410000Y-100575000D03*
X138410000Y-102575000D03*
D16*
X135810000Y-104075000D03*
X133810000Y-104075000D03*
X131810000Y-104075000D03*
X129810000Y-104075000D03*
X127810000Y-104075000D03*
X125810000Y-104075000D03*
D15*
X123210000Y-102575000D03*
X123210000Y-100575000D03*
X123210000Y-98575000D03*
X123210000Y-96575000D03*
X123210000Y-94575000D03*
X123210000Y-92575000D03*
X123210000Y-90575000D03*
X123210000Y-88575000D03*
D17*
X115570000Y-100965000D03*
D18*
X115570000Y-103505000D03*
D19*
X133555000Y-114300000D03*
X131875000Y-114300000D03*
D20*
X135625000Y-114300000D03*
X129805000Y-114300000D03*
D21*
X135177500Y-112000000D03*
X130252500Y-112000000D03*
D22*
X134015000Y-111640000D03*
X133365000Y-111640000D03*
X132715000Y-111640000D03*
X132065000Y-111640000D03*
X131415000Y-111640000D03*
D23*
X131445000Y-106850000D03*
X133345000Y-106850000D03*
X133345000Y-109050000D03*
X132395000Y-109050000D03*
X131445000Y-109050000D03*
D24*
X115570000Y-96520000D03*
D25*
X115570000Y-93980000D03*
X115570000Y-95250000D03*
D18*
X140335000Y-114935000D03*
D17*
X142875000Y-114935000D03*
D10*
X128905000Y-106680000D03*
X128905000Y-108680000D03*
X137795000Y-108680000D03*
X137795000Y-106680000D03*
D26*
X118110000Y-102235000D03*
X120110000Y-102235000D03*
X120110000Y-104140000D03*
X118110000Y-104140000D03*
D27*
X143065000Y-111125000D03*
X139065000Y-111125000D03*
D28*
X141310000Y-81280000D03*
X143510000Y-81280000D03*
D29*
X143505000Y-90805000D03*
X141605000Y-90805000D03*
X143505000Y-92710000D03*
X141605000Y-92710000D03*
X143505000Y-94615000D03*
X141605000Y-94615000D03*
X141610000Y-85090000D03*
X143510000Y-85090000D03*
X143510000Y-88900000D03*
X141610000Y-88900000D03*
X141610000Y-86995000D03*
X143510000Y-86995000D03*
X143505000Y-96520000D03*
X141605000Y-96520000D03*
X141610000Y-83185000D03*
X143510000Y-83185000D03*
X118110000Y-100330000D03*
X120010000Y-100330000D03*
D30*
X119090000Y-107780000D03*
X114590000Y-107780000D03*
X114590000Y-115740000D03*
X119090000Y-115740000D03*
X121575000Y-115740000D03*
X126075000Y-115740000D03*
X126075000Y-107780000D03*
X121575000Y-107780000D03*
D18*
X142875000Y-99695000D03*
X142875000Y-102235000D03*
X142875000Y-104775000D03*
D17*
X142875000Y-107315000D03*
D31*
X118745000Y-106045000D03*
X139065000Y-105410000D03*
X142555002Y-95250000D03*
X121265000Y-100985000D03*
X136525000Y-98425000D03*
X128270000Y-93980000D03*
X142598052Y-91836816D03*
X136525000Y-96520000D03*
X126365000Y-106680000D03*
X118745000Y-99060000D03*
X125095000Y-88265000D03*
X140335000Y-85090000D03*
X136525000Y-94615000D03*
X118110000Y-90805000D03*
X115570000Y-81915000D03*
X114300000Y-90170000D03*
X116840000Y-81915000D03*
X136525000Y-92710000D03*
X139076365Y-109426669D03*
X140335000Y-83185000D03*
X134620000Y-89535000D03*
D32*
X133555000Y-114300000D02*
X135625000Y-114300000D01*
X115245000Y-84845000D02*
X115245000Y-85345000D01*
X134015000Y-111640000D02*
X134817500Y-111640000D01*
X116855002Y-88915000D02*
X116445000Y-88915000D01*
X117095001Y-85895001D02*
X117095001Y-88675001D01*
X116545000Y-84845000D02*
X116545000Y-85345000D01*
X117095001Y-88675001D02*
X116855002Y-88915000D01*
X134817500Y-111640000D02*
X135177500Y-112000000D01*
X115245000Y-85345000D02*
X115320001Y-85420001D01*
X116469999Y-85420001D02*
X116545000Y-85345000D01*
X115320001Y-85420001D02*
X116469999Y-85420001D01*
X116545000Y-85345000D02*
X117095001Y-85895001D01*
X131875000Y-114300000D02*
X133555000Y-114300000D01*
X135625000Y-114300000D02*
X139700000Y-114300000D01*
X139700000Y-114300000D02*
X140335000Y-114935000D01*
X129805000Y-114300000D02*
X131875000Y-114300000D01*
X130252500Y-113852500D02*
X129805000Y-114300000D01*
X130252500Y-112000000D02*
X130252500Y-113852500D01*
X135177500Y-113852500D02*
X135625000Y-114300000D01*
X135177500Y-112000000D02*
X135177500Y-113852500D01*
X119090000Y-115740000D02*
X121575000Y-115740000D01*
X119090000Y-107780000D02*
X119090000Y-115740000D01*
X121575000Y-107780000D02*
X119090000Y-107780000D01*
X142875000Y-99695000D02*
X142875000Y-96550000D01*
X142875000Y-96550000D02*
X142905000Y-96520000D01*
X142905000Y-96520000D02*
X143505000Y-96520000D01*
X117565001Y-81566999D02*
X117565001Y-83324999D01*
X117565001Y-83324999D02*
X116545000Y-84345000D01*
X116545000Y-84345000D02*
X116545000Y-84845000D01*
X115221999Y-81189999D02*
X117188001Y-81189999D01*
X117188001Y-81189999D02*
X117565001Y-81566999D01*
X114595000Y-82795000D02*
X114595000Y-81816998D01*
X114595000Y-81816998D02*
X115221999Y-81189999D01*
X116660001Y-91530001D02*
X116570000Y-91440000D01*
X116445000Y-88915000D02*
X118125000Y-88915000D01*
X118125000Y-88915000D02*
X118835001Y-89625001D01*
X118835001Y-91153001D02*
X118458001Y-91530001D01*
X118835001Y-89625001D02*
X118835001Y-91153001D01*
X118458001Y-91530001D02*
X116660001Y-91530001D01*
X129265000Y-112000000D02*
X130252500Y-112000000D01*
X128905000Y-111640000D02*
X129265000Y-112000000D01*
X128905000Y-108680000D02*
X128905000Y-111640000D01*
X134015000Y-110700000D02*
X134015000Y-111640000D01*
X133939999Y-110624999D02*
X134015000Y-110700000D01*
X133189999Y-110624999D02*
X133939999Y-110624999D01*
X132395000Y-109830000D02*
X133189999Y-110624999D01*
X132395000Y-109050000D02*
X132395000Y-109830000D01*
X135890000Y-108680000D02*
X137795000Y-108680000D01*
X139355002Y-108680000D02*
X138670000Y-108680000D01*
X141184999Y-110509997D02*
X139355002Y-108680000D01*
X141184999Y-114085001D02*
X141184999Y-110509997D01*
X140335000Y-114935000D02*
X141184999Y-114085001D01*
X137795000Y-108680000D02*
X138670000Y-108680000D01*
X120110000Y-102235000D02*
X120110000Y-104140000D01*
X120110000Y-104265000D02*
X121164999Y-105319999D01*
X120110000Y-104140000D02*
X120110000Y-104265000D01*
X121164999Y-105580001D02*
X121164999Y-105319999D01*
X119090000Y-107655000D02*
X121164999Y-105580001D01*
X119090000Y-107780000D02*
X119090000Y-107655000D01*
X116705000Y-95511029D02*
X116705000Y-91575000D01*
X116191019Y-96025010D02*
X116705000Y-95511029D01*
X116064990Y-96025010D02*
X116191019Y-96025010D01*
X115570000Y-96520000D02*
X116064990Y-96025010D01*
X116705000Y-91575000D02*
X116570000Y-91440000D01*
X118745000Y-107435000D02*
X119090000Y-107780000D01*
X118745000Y-106045000D02*
X118745000Y-107435000D01*
X138410000Y-103325000D02*
X138410000Y-102575000D01*
X139790001Y-104705001D02*
X138410000Y-103325000D01*
X137920000Y-108680000D02*
X139790001Y-106809999D01*
X137795000Y-108680000D02*
X137920000Y-108680000D01*
X143434003Y-105954999D02*
X139790001Y-105954999D01*
X144145000Y-105244002D02*
X143434003Y-105954999D01*
X144145000Y-100965000D02*
X144145000Y-105244002D01*
X142875000Y-99695000D02*
X144145000Y-100965000D01*
X139790001Y-106809999D02*
X139790001Y-105954999D01*
X139790001Y-105954999D02*
X139790001Y-104705001D01*
X126338003Y-105580001D02*
X121164999Y-105580001D01*
X127090001Y-106331999D02*
X126338003Y-105580001D01*
X127090001Y-106990001D02*
X127090001Y-106331999D01*
X128780000Y-108680000D02*
X127090001Y-106990001D01*
X128905000Y-108680000D02*
X128780000Y-108680000D01*
X114595000Y-84484998D02*
X114595000Y-84845000D01*
X115245000Y-83834998D02*
X114595000Y-84484998D01*
X115245000Y-82795000D02*
X115245000Y-83834998D01*
X114595000Y-87565000D02*
X114695000Y-87665000D01*
X114595000Y-84845000D02*
X114595000Y-87565000D01*
X115105002Y-88915000D02*
X114695000Y-88915000D01*
X115345001Y-88675001D02*
X115105002Y-88915000D01*
X115345001Y-87854999D02*
X115345001Y-88675001D01*
X115155002Y-87665000D02*
X115345001Y-87854999D01*
X114695000Y-87665000D02*
X115155002Y-87665000D01*
X115895000Y-84484998D02*
X115245000Y-83834998D01*
X115895000Y-84845000D02*
X115895000Y-84484998D01*
X114570000Y-92280000D02*
X114570000Y-91440000D01*
X115570000Y-93280000D02*
X114570000Y-92280000D01*
X115570000Y-93980000D02*
X115570000Y-93280000D01*
X114750010Y-88970010D02*
X114695000Y-88915000D01*
X114750010Y-89556420D02*
X114750010Y-88970010D01*
X115570000Y-90376410D02*
X114750010Y-89556420D01*
X115570000Y-91100002D02*
X115570000Y-90376410D01*
X115230002Y-91440000D02*
X115570000Y-91100002D01*
X114570000Y-91440000D02*
X115230002Y-91440000D01*
X143510000Y-84790000D02*
X143510000Y-85090000D01*
X144185001Y-84114999D02*
X143510000Y-84790000D01*
X144185001Y-81955001D02*
X144185001Y-84114999D01*
X143510000Y-81280000D02*
X144185001Y-81955001D01*
X143510000Y-85090000D02*
X143510000Y-86995000D01*
X143510000Y-86995000D02*
X143510000Y-88900000D01*
X143510000Y-90800000D02*
X143505000Y-90805000D01*
X143510000Y-88900000D02*
X143510000Y-90800000D01*
X143505000Y-90805000D02*
X143505000Y-92710000D01*
X143505000Y-92710000D02*
X143505000Y-94615000D01*
X135015000Y-106680000D02*
X135890000Y-106680000D01*
X133950011Y-107744989D02*
X135015000Y-106680000D01*
X132914989Y-107744989D02*
X133950011Y-107744989D01*
X132020000Y-106850000D02*
X132914989Y-107744989D01*
X131445000Y-106850000D02*
X132020000Y-106850000D01*
X135890000Y-106680000D02*
X137795000Y-106680000D01*
X137795000Y-106680000D02*
X139065000Y-105410000D01*
X142870000Y-95250000D02*
X143505000Y-94615000D01*
X142555002Y-95250000D02*
X142870000Y-95250000D01*
X124710000Y-102575000D02*
X123210000Y-102575000D01*
X128295002Y-102575000D02*
X124710000Y-102575000D01*
X128635001Y-102914999D02*
X128295002Y-102575000D01*
X128635001Y-104885003D02*
X128635001Y-102914999D01*
X129049999Y-105300001D02*
X128635001Y-104885003D01*
X130100001Y-105300001D02*
X129049999Y-105300001D01*
X131445000Y-106645000D02*
X130100001Y-105300001D01*
X131445000Y-106850000D02*
X131445000Y-106645000D01*
X119890000Y-100330000D02*
X120010000Y-100330000D01*
X118110000Y-102110000D02*
X119890000Y-100330000D01*
X118110000Y-102235000D02*
X118110000Y-102110000D01*
X122855000Y-102575000D02*
X123210000Y-102575000D01*
X120010000Y-100330000D02*
X120610000Y-100330000D01*
X120610000Y-100330000D02*
X121265000Y-100985000D01*
X121265000Y-100985000D02*
X122855000Y-102575000D01*
X137660000Y-88575000D02*
X138410000Y-88575000D01*
X135349990Y-90885010D02*
X137660000Y-88575000D01*
X135349990Y-99849992D02*
X135349990Y-90885010D01*
X137249997Y-101749999D02*
X135349990Y-99849992D01*
X139849999Y-101749999D02*
X137249997Y-101749999D01*
X142875000Y-104775000D02*
X139849999Y-101749999D01*
X136910000Y-90575000D02*
X138410000Y-90575000D01*
X135799999Y-91685001D02*
X136910000Y-90575000D01*
X135799999Y-97699999D02*
X135799999Y-91685001D01*
X136525000Y-98425000D02*
X135799999Y-97699999D01*
X123210000Y-92575000D02*
X126865000Y-92575000D01*
X126865000Y-92575000D02*
X128270000Y-93980000D01*
X142598052Y-91798052D02*
X141605000Y-90805000D01*
X142598052Y-91836816D02*
X142598052Y-91798052D01*
X126075000Y-107780000D02*
X126075000Y-115740000D01*
X141605000Y-93010000D02*
X141605000Y-92710000D01*
X140929999Y-93685001D02*
X141605000Y-93010000D01*
X140929999Y-94655001D02*
X140929999Y-93685001D01*
X139010000Y-96575000D02*
X140929999Y-94655001D01*
X138410000Y-96575000D02*
X139010000Y-96575000D01*
X138355000Y-96520000D02*
X138410000Y-96575000D01*
X136525000Y-96520000D02*
X138355000Y-96520000D01*
X126075000Y-107780000D02*
X126075000Y-106970000D01*
X126075000Y-106970000D02*
X126365000Y-106680000D01*
X141605000Y-94915000D02*
X141605000Y-94615000D01*
X140929999Y-95590001D02*
X141605000Y-94915000D01*
X140929999Y-96805001D02*
X140929999Y-95590001D01*
X139160000Y-98575000D02*
X140929999Y-96805001D01*
X138410000Y-98575000D02*
X139160000Y-98575000D01*
X141605000Y-97420000D02*
X141605000Y-96520000D01*
X141605000Y-98130000D02*
X141605000Y-97420000D01*
X139160000Y-100575000D02*
X141605000Y-98130000D01*
X138410000Y-100575000D02*
X139160000Y-100575000D01*
X118110000Y-100330000D02*
X118110000Y-100030000D01*
X118785001Y-99354999D02*
X121239999Y-99354999D01*
X122460000Y-100575000D02*
X123210000Y-100575000D01*
X118110000Y-100030000D02*
X118785001Y-99354999D01*
X121239999Y-99354999D02*
X122460000Y-100575000D01*
X118785001Y-99354999D02*
X118785001Y-99100001D01*
X118785001Y-99100001D02*
X118745000Y-99060000D01*
X114590000Y-115740000D02*
X114590000Y-107780000D01*
X123210000Y-88575000D02*
X124785000Y-88575000D01*
X124785000Y-88575000D02*
X125095000Y-88265000D01*
X140335000Y-85090000D02*
X141610000Y-85090000D01*
X115570000Y-100965000D02*
X115570000Y-99865000D01*
X120100000Y-90935000D02*
X120100000Y-95335000D01*
X122460000Y-88575000D02*
X120100000Y-90935000D01*
X123210000Y-88575000D02*
X122460000Y-88575000D01*
X115570000Y-99865000D02*
X120100000Y-95335000D01*
X114590000Y-106755000D02*
X114590000Y-107780000D01*
X114394999Y-106559999D02*
X114590000Y-106755000D01*
X114470000Y-100965000D02*
X114394999Y-101040001D01*
X115570000Y-100965000D02*
X114470000Y-100965000D01*
X116630001Y-104869999D02*
X114394999Y-104869999D01*
X117360000Y-104140000D02*
X116630001Y-104869999D01*
X118110000Y-104140000D02*
X117360000Y-104140000D01*
X114394999Y-101040001D02*
X114394999Y-104869999D01*
X114394999Y-104869999D02*
X114394999Y-106559999D01*
X121710000Y-94575000D02*
X123210000Y-94575000D01*
X116745001Y-99539999D02*
X121710000Y-94575000D01*
X115570000Y-103505000D02*
X116745001Y-102329999D01*
X116745001Y-102329999D02*
X116745001Y-99539999D01*
X138410000Y-94575000D02*
X136565000Y-94575000D01*
X136565000Y-94575000D02*
X136525000Y-94615000D01*
X116635000Y-90805000D02*
X116570000Y-90740000D01*
X118110000Y-90805000D02*
X116635000Y-90805000D01*
X116134998Y-88265000D02*
X116445000Y-88265000D01*
X115894999Y-88504999D02*
X116134998Y-88265000D01*
X115894999Y-90064999D02*
X115894999Y-88504999D01*
X116570000Y-90740000D02*
X115894999Y-90064999D01*
X115895000Y-82795000D02*
X115895000Y-82240000D01*
X115895000Y-82240000D02*
X115570000Y-81915000D01*
X141610000Y-89200000D02*
X141610000Y-88900000D01*
X140929999Y-89880001D02*
X141610000Y-89200000D01*
X140929999Y-92805001D02*
X140929999Y-89880001D01*
X139160000Y-94575000D02*
X140929999Y-92805001D01*
X138410000Y-94575000D02*
X139160000Y-94575000D01*
X114570000Y-90740000D02*
X114570000Y-90440000D01*
X114570000Y-90440000D02*
X114300000Y-90170000D01*
X114384998Y-88265000D02*
X114695000Y-88265000D01*
X114144999Y-88504999D02*
X114384998Y-88265000D01*
X114144999Y-89325001D02*
X114144999Y-88504999D01*
X114300000Y-89480002D02*
X114144999Y-89325001D01*
X114300000Y-90170000D02*
X114300000Y-89480002D01*
X116545000Y-82795000D02*
X116545000Y-82210000D01*
X116545000Y-82210000D02*
X116840000Y-81915000D01*
X136525000Y-92710000D02*
X138275000Y-92710000D01*
X138275000Y-92710000D02*
X138410000Y-92575000D01*
X141610000Y-87295000D02*
X141610000Y-86995000D01*
X140479989Y-88425011D02*
X141610000Y-87295000D01*
X140479989Y-91255011D02*
X140479989Y-88425011D01*
X139160000Y-92575000D02*
X140479989Y-91255011D01*
X138410000Y-92575000D02*
X139160000Y-92575000D01*
X131415000Y-109080000D02*
X131445000Y-109050000D01*
X131415000Y-111640000D02*
X131415000Y-109080000D01*
X129280000Y-106680000D02*
X128905000Y-106680000D01*
X131445000Y-108845000D02*
X129280000Y-106680000D01*
X131445000Y-109050000D02*
X131445000Y-108845000D01*
X133345000Y-108270000D02*
X133345000Y-109050000D01*
X133269999Y-108194999D02*
X133345000Y-108270000D01*
X131520001Y-108194999D02*
X133269999Y-108194999D01*
X131445000Y-108270000D02*
X131520001Y-108194999D01*
X131445000Y-109050000D02*
X131445000Y-108270000D01*
X138715000Y-111125000D02*
X139065000Y-111125000D01*
X137565000Y-109975000D02*
X138715000Y-111125000D01*
X134845000Y-109975000D02*
X137565000Y-109975000D01*
X133920000Y-109050000D02*
X134845000Y-109975000D01*
X133345000Y-109050000D02*
X133920000Y-109050000D01*
X139065000Y-111125000D02*
X139065000Y-109438034D01*
X139065000Y-109438034D02*
X139076365Y-109426669D01*
X142875000Y-111315000D02*
X143065000Y-111125000D01*
X142875000Y-114935000D02*
X142875000Y-111315000D01*
X142910000Y-83185000D02*
X143510000Y-83185000D01*
X142285001Y-82560001D02*
X142910000Y-83185000D01*
X142285001Y-81405001D02*
X142285001Y-82560001D01*
X142160000Y-81280000D02*
X142285001Y-81405001D01*
X141310000Y-81280000D02*
X142160000Y-81280000D01*
X141610000Y-83185000D02*
X140335000Y-83185000D01*
X123210000Y-98575000D02*
X125580000Y-98575000D01*
X125580000Y-98575000D02*
X134620000Y-89535000D01*
M02*
