M48
; DRILL file {KiCad (5.1.0)-1} date 2019-04-09 15:10:53
; FORMAT={-:-/ absolute / inch / decimal}
; #@! TF.CreationDate,2019-04-09T15:10:53+02:00
; #@! TF.GenerationSoftware,Kicad,Pcbnew,(5.1.0)-1
FMAT,2
INCH
T1C0.0157
T2C0.0236
T3C0.0394
%
G90
G05
T1
X4.5Y-3.55
X4.55Y-3.225
X4.6Y-3.225
X4.65Y-3.575
X4.675Y-3.9
X4.675Y-4.175
X4.7742Y-3.9758
X4.925Y-3.475
X4.975Y-4.2
X5.05Y-3.7
X5.3Y-3.525
X5.375Y-3.65
X5.375Y-3.725
X5.375Y-3.8
X5.375Y-3.875
X5.475Y-4.15
X5.4754Y-4.3081
X5.525Y-3.275
X5.525Y-3.35
X5.6124Y-3.75
X5.6141Y-3.6156
T2
X4.55Y-3.7
X4.55Y-3.75
X4.55Y-3.8
T3
X5.525Y-4.525
X5.625Y-4.525
X4.55Y-3.975
X4.55Y-4.075
X5.625Y-3.925
X5.625Y-4.025
X5.625Y-4.125
X5.625Y-4.225
T0
M30
