G04 #@! TF.GenerationSoftware,KiCad,Pcbnew,(5.1.0)-1*
G04 #@! TF.CreationDate,2019-04-04T16:35:16+02:00*
G04 #@! TF.ProjectId,WiFi Environment Sensor Node,57694669-2045-46e7-9669-726f6e6d656e,rev?*
G04 #@! TF.SameCoordinates,Original*
G04 #@! TF.FileFunction,Paste,Top*
G04 #@! TF.FilePolarity,Positive*
%FSLAX46Y46*%
G04 Gerber Fmt 4.6, Leading zero omitted, Abs format (unit mm)*
G04 Created by KiCad (PCBNEW (5.1.0)-1) date 2019-04-04 16:35:17*
%MOMM*%
%LPD*%
G04 APERTURE LIST*
%ADD10R,1.250000X1.000000*%
%ADD11R,0.350000X0.500000*%
%ADD12R,0.900000X0.350000*%
%ADD13R,1.000000X0.350000*%
%ADD14R,0.550000X0.300000*%
%ADD15R,2.500000X1.000000*%
%ADD16R,1.000000X1.800000*%
%ADD17R,1.175000X1.900000*%
%ADD18R,2.375000X1.900000*%
%ADD19R,1.475000X2.100000*%
%ADD20R,0.450000X1.380000*%
%ADD21R,0.650000X1.060000*%
%ADD22R,1.000000X1.250000*%
%ADD23R,2.500000X1.800000*%
%ADD24R,1.200000X1.200000*%
%ADD25R,0.700000X1.300000*%
%ADD26R,1.300000X1.550000*%
G04 APERTURE END LIST*
D10*
X135890000Y-108680000D03*
X135890000Y-106680000D03*
D11*
X116545000Y-84845000D03*
X115895000Y-84845000D03*
X115245000Y-84845000D03*
X114595000Y-84845000D03*
X114595000Y-82795000D03*
X115245000Y-82795000D03*
X115895000Y-82795000D03*
X116545000Y-82795000D03*
D12*
X116520000Y-90740000D03*
X116520000Y-91440000D03*
X114620000Y-91440000D03*
D13*
X114670000Y-90740000D03*
D14*
X114745000Y-88915000D03*
X114745000Y-88265000D03*
X114745000Y-87665000D03*
X116495000Y-87615000D03*
X116495000Y-88265000D03*
X116495000Y-88915000D03*
D15*
X138410000Y-88575000D03*
X138410000Y-90575000D03*
X138410000Y-92575000D03*
X138410000Y-94575000D03*
X138410000Y-96575000D03*
X138410000Y-98575000D03*
X138410000Y-100575000D03*
X138410000Y-102575000D03*
D16*
X135810000Y-104075000D03*
X133810000Y-104075000D03*
X131810000Y-104075000D03*
X129810000Y-104075000D03*
X127810000Y-104075000D03*
X125810000Y-104075000D03*
D15*
X123210000Y-102575000D03*
X123210000Y-100575000D03*
X123210000Y-98575000D03*
X123210000Y-96575000D03*
X123210000Y-94575000D03*
X123210000Y-92575000D03*
X123210000Y-90575000D03*
X123210000Y-88575000D03*
D17*
X133555000Y-114300000D03*
X131875000Y-114300000D03*
D18*
X135625000Y-114300000D03*
X129805000Y-114300000D03*
D19*
X135177500Y-112000000D03*
X130252500Y-112000000D03*
D20*
X134015000Y-111640000D03*
X133365000Y-111640000D03*
X132715000Y-111640000D03*
X132065000Y-111640000D03*
X131415000Y-111640000D03*
D21*
X131445000Y-106850000D03*
X133345000Y-106850000D03*
X133345000Y-109050000D03*
X132395000Y-109050000D03*
X131445000Y-109050000D03*
D10*
X128905000Y-106680000D03*
X128905000Y-108680000D03*
X137795000Y-108680000D03*
X137795000Y-106680000D03*
D22*
X118110000Y-102235000D03*
X120110000Y-102235000D03*
X120110000Y-104140000D03*
X118110000Y-104140000D03*
D23*
X143065000Y-111125000D03*
X139065000Y-111125000D03*
D24*
X141310000Y-81280000D03*
X143510000Y-81280000D03*
D25*
X143505000Y-90805000D03*
X141605000Y-90805000D03*
X143505000Y-92710000D03*
X141605000Y-92710000D03*
X143505000Y-94615000D03*
X141605000Y-94615000D03*
X141610000Y-85090000D03*
X143510000Y-85090000D03*
X143510000Y-88900000D03*
X141610000Y-88900000D03*
X141610000Y-86995000D03*
X143510000Y-86995000D03*
X143505000Y-96520000D03*
X141605000Y-96520000D03*
X141610000Y-83185000D03*
X143510000Y-83185000D03*
X118110000Y-100330000D03*
X120010000Y-100330000D03*
D26*
X119090000Y-107780000D03*
X114590000Y-107780000D03*
X114590000Y-115740000D03*
X119090000Y-115740000D03*
X121575000Y-107780000D03*
X126075000Y-107780000D03*
X126075000Y-115740000D03*
X121575000Y-115740000D03*
M02*
