G04 #@! TF.GenerationSoftware,KiCad,Pcbnew,(5.1.0)-1*
G04 #@! TF.CreationDate,2019-04-05T20:07:07+02:00*
G04 #@! TF.ProjectId,WiFi Environment Sensor Node,57694669-2045-46e7-9669-726f6e6d656e,rev?*
G04 #@! TF.SameCoordinates,Original*
G04 #@! TF.FileFunction,Soldermask,Top*
G04 #@! TF.FilePolarity,Negative*
%FSLAX46Y46*%
G04 Gerber Fmt 4.6, Leading zero omitted, Abs format (unit mm)*
G04 Created by KiCad (PCBNEW (5.1.0)-1) date 2019-04-05 20:07:07*
%MOMM*%
%LPD*%
G04 APERTURE LIST*
%ADD10C,0.100000*%
G04 APERTURE END LIST*
D10*
G36*
X115291000Y-116566000D02*
G01*
X113889000Y-116566000D01*
X113889000Y-114914000D01*
X115291000Y-114914000D01*
X115291000Y-116566000D01*
X115291000Y-116566000D01*
G37*
G36*
X122276000Y-116566000D02*
G01*
X120874000Y-116566000D01*
X120874000Y-114914000D01*
X122276000Y-114914000D01*
X122276000Y-116566000D01*
X122276000Y-116566000D01*
G37*
G36*
X126776000Y-116566000D02*
G01*
X125374000Y-116566000D01*
X125374000Y-114914000D01*
X126776000Y-114914000D01*
X126776000Y-116566000D01*
X126776000Y-116566000D01*
G37*
G36*
X119791000Y-116566000D02*
G01*
X118389000Y-116566000D01*
X118389000Y-114914000D01*
X119791000Y-114914000D01*
X119791000Y-116566000D01*
X119791000Y-116566000D01*
G37*
G36*
X143776000Y-115836000D02*
G01*
X141974000Y-115836000D01*
X141974000Y-114034000D01*
X143776000Y-114034000D01*
X143776000Y-115836000D01*
X143776000Y-115836000D01*
G37*
G36*
X140445442Y-114040518D02*
G01*
X140511627Y-114047037D01*
X140681466Y-114098557D01*
X140837991Y-114182222D01*
X140873729Y-114211552D01*
X140975186Y-114294814D01*
X141058448Y-114396271D01*
X141087778Y-114432009D01*
X141171443Y-114588534D01*
X141222963Y-114758373D01*
X141240359Y-114935000D01*
X141222963Y-115111627D01*
X141171443Y-115281466D01*
X141087778Y-115437991D01*
X141058448Y-115473729D01*
X140975186Y-115575186D01*
X140873729Y-115658448D01*
X140837991Y-115687778D01*
X140681466Y-115771443D01*
X140511627Y-115822963D01*
X140445443Y-115829481D01*
X140379260Y-115836000D01*
X140290740Y-115836000D01*
X140224557Y-115829481D01*
X140158373Y-115822963D01*
X139988534Y-115771443D01*
X139832009Y-115687778D01*
X139796271Y-115658448D01*
X139694814Y-115575186D01*
X139611552Y-115473729D01*
X139582222Y-115437991D01*
X139498557Y-115281466D01*
X139447037Y-115111627D01*
X139429641Y-114935000D01*
X139447037Y-114758373D01*
X139498557Y-114588534D01*
X139582222Y-114432009D01*
X139611552Y-114396271D01*
X139694814Y-114294814D01*
X139796271Y-114211552D01*
X139832009Y-114182222D01*
X139988534Y-114098557D01*
X140158373Y-114047037D01*
X140224558Y-114040518D01*
X140290740Y-114034000D01*
X140379260Y-114034000D01*
X140445442Y-114040518D01*
X140445442Y-114040518D01*
G37*
G36*
X135966000Y-113174001D02*
G01*
X135968402Y-113198387D01*
X135975515Y-113221836D01*
X135987066Y-113243447D01*
X136002611Y-113262389D01*
X136021553Y-113277934D01*
X136043164Y-113289485D01*
X136066613Y-113296598D01*
X136090999Y-113299000D01*
X136863500Y-113299000D01*
X136863500Y-115301000D01*
X132916500Y-115301000D01*
X132916500Y-113299000D01*
X134264001Y-113299000D01*
X134288387Y-113296598D01*
X134311836Y-113289485D01*
X134333447Y-113277934D01*
X134352389Y-113262389D01*
X134367934Y-113243447D01*
X134379485Y-113221836D01*
X134386598Y-113198387D01*
X134389000Y-113174001D01*
X134389000Y-112505999D01*
X134386598Y-112481613D01*
X134379485Y-112458164D01*
X134367934Y-112436553D01*
X134352389Y-112417611D01*
X134333447Y-112402066D01*
X134311836Y-112390515D01*
X134288387Y-112383402D01*
X134264001Y-112381000D01*
X131165999Y-112381000D01*
X131141613Y-112383402D01*
X131118164Y-112390515D01*
X131096553Y-112402066D01*
X131077611Y-112417611D01*
X131062066Y-112436553D01*
X131050515Y-112458164D01*
X131043402Y-112481613D01*
X131041000Y-112505999D01*
X131041000Y-113174001D01*
X131043402Y-113198387D01*
X131050515Y-113221836D01*
X131062066Y-113243447D01*
X131077611Y-113262389D01*
X131096553Y-113277934D01*
X131118164Y-113289485D01*
X131141613Y-113296598D01*
X131165999Y-113299000D01*
X132513500Y-113299000D01*
X132513500Y-115301000D01*
X128566500Y-115301000D01*
X128566500Y-113299000D01*
X129339001Y-113299000D01*
X129363387Y-113296598D01*
X129386836Y-113289485D01*
X129408447Y-113277934D01*
X129427389Y-113262389D01*
X129442934Y-113243447D01*
X129454485Y-113221836D01*
X129461598Y-113198387D01*
X129464000Y-113174001D01*
X129464000Y-110899000D01*
X135966000Y-110899000D01*
X135966000Y-113174001D01*
X135966000Y-113174001D01*
G37*
G36*
X144366000Y-112076000D02*
G01*
X141764000Y-112076000D01*
X141764000Y-110174000D01*
X144366000Y-110174000D01*
X144366000Y-112076000D01*
X144366000Y-112076000D01*
G37*
G36*
X140366000Y-112076000D02*
G01*
X137764000Y-112076000D01*
X137764000Y-110174000D01*
X140366000Y-110174000D01*
X140366000Y-112076000D01*
X140366000Y-112076000D01*
G37*
G36*
X133721000Y-109631000D02*
G01*
X131069000Y-109631000D01*
X131069000Y-108469000D01*
X133721000Y-108469000D01*
X133721000Y-109631000D01*
X133721000Y-109631000D01*
G37*
G36*
X129581000Y-109231000D02*
G01*
X128229000Y-109231000D01*
X128229000Y-108129000D01*
X129581000Y-108129000D01*
X129581000Y-109231000D01*
X129581000Y-109231000D01*
G37*
G36*
X138471000Y-109231000D02*
G01*
X137119000Y-109231000D01*
X137119000Y-108129000D01*
X138471000Y-108129000D01*
X138471000Y-109231000D01*
X138471000Y-109231000D01*
G37*
G36*
X136566000Y-109231000D02*
G01*
X135214000Y-109231000D01*
X135214000Y-108129000D01*
X136566000Y-108129000D01*
X136566000Y-109231000D01*
X136566000Y-109231000D01*
G37*
G36*
X115291000Y-108606000D02*
G01*
X113889000Y-108606000D01*
X113889000Y-106954000D01*
X115291000Y-106954000D01*
X115291000Y-108606000D01*
X115291000Y-108606000D01*
G37*
G36*
X126776000Y-108606000D02*
G01*
X125374000Y-108606000D01*
X125374000Y-106954000D01*
X126776000Y-106954000D01*
X126776000Y-108606000D01*
X126776000Y-108606000D01*
G37*
G36*
X122276000Y-108606000D02*
G01*
X120874000Y-108606000D01*
X120874000Y-106954000D01*
X122276000Y-106954000D01*
X122276000Y-108606000D01*
X122276000Y-108606000D01*
G37*
G36*
X119791000Y-108606000D02*
G01*
X118389000Y-108606000D01*
X118389000Y-106954000D01*
X119791000Y-106954000D01*
X119791000Y-108606000D01*
X119791000Y-108606000D01*
G37*
G36*
X143776000Y-108216000D02*
G01*
X141974000Y-108216000D01*
X141974000Y-106414000D01*
X143776000Y-106414000D01*
X143776000Y-108216000D01*
X143776000Y-108216000D01*
G37*
G36*
X131821000Y-107431000D02*
G01*
X131069000Y-107431000D01*
X131069000Y-106269000D01*
X131821000Y-106269000D01*
X131821000Y-107431000D01*
X131821000Y-107431000D01*
G37*
G36*
X133721000Y-107431000D02*
G01*
X132969000Y-107431000D01*
X132969000Y-106269000D01*
X133721000Y-106269000D01*
X133721000Y-107431000D01*
X133721000Y-107431000D01*
G37*
G36*
X138471000Y-107231000D02*
G01*
X137119000Y-107231000D01*
X137119000Y-106129000D01*
X138471000Y-106129000D01*
X138471000Y-107231000D01*
X138471000Y-107231000D01*
G37*
G36*
X129581000Y-107231000D02*
G01*
X128229000Y-107231000D01*
X128229000Y-106129000D01*
X129581000Y-106129000D01*
X129581000Y-107231000D01*
X129581000Y-107231000D01*
G37*
G36*
X136566000Y-107231000D02*
G01*
X135214000Y-107231000D01*
X135214000Y-106129000D01*
X136566000Y-106129000D01*
X136566000Y-107231000D01*
X136566000Y-107231000D01*
G37*
G36*
X142985443Y-103880519D02*
G01*
X143051627Y-103887037D01*
X143221466Y-103938557D01*
X143377991Y-104022222D01*
X143413729Y-104051552D01*
X143515186Y-104134814D01*
X143598448Y-104236271D01*
X143627778Y-104272009D01*
X143711443Y-104428534D01*
X143762963Y-104598373D01*
X143780359Y-104775000D01*
X143762963Y-104951627D01*
X143711443Y-105121466D01*
X143627778Y-105277991D01*
X143598448Y-105313729D01*
X143515186Y-105415186D01*
X143413729Y-105498448D01*
X143377991Y-105527778D01*
X143221466Y-105611443D01*
X143051627Y-105662963D01*
X142985443Y-105669481D01*
X142919260Y-105676000D01*
X142830740Y-105676000D01*
X142764557Y-105669481D01*
X142698373Y-105662963D01*
X142528534Y-105611443D01*
X142372009Y-105527778D01*
X142336271Y-105498448D01*
X142234814Y-105415186D01*
X142151552Y-105313729D01*
X142122222Y-105277991D01*
X142038557Y-105121466D01*
X141987037Y-104951627D01*
X141969641Y-104775000D01*
X141987037Y-104598373D01*
X142038557Y-104428534D01*
X142122222Y-104272009D01*
X142151552Y-104236271D01*
X142234814Y-104134814D01*
X142336271Y-104051552D01*
X142372009Y-104022222D01*
X142528534Y-103938557D01*
X142698373Y-103887037D01*
X142764557Y-103880519D01*
X142830740Y-103874000D01*
X142919260Y-103874000D01*
X142985443Y-103880519D01*
X142985443Y-103880519D01*
G37*
G36*
X126361000Y-105026000D02*
G01*
X125259000Y-105026000D01*
X125259000Y-103124000D01*
X126361000Y-103124000D01*
X126361000Y-105026000D01*
X126361000Y-105026000D01*
G37*
G36*
X128361000Y-105026000D02*
G01*
X127259000Y-105026000D01*
X127259000Y-103124000D01*
X128361000Y-103124000D01*
X128361000Y-105026000D01*
X128361000Y-105026000D01*
G37*
G36*
X130361000Y-105026000D02*
G01*
X129259000Y-105026000D01*
X129259000Y-103124000D01*
X130361000Y-103124000D01*
X130361000Y-105026000D01*
X130361000Y-105026000D01*
G37*
G36*
X132361000Y-105026000D02*
G01*
X131259000Y-105026000D01*
X131259000Y-103124000D01*
X132361000Y-103124000D01*
X132361000Y-105026000D01*
X132361000Y-105026000D01*
G37*
G36*
X134361000Y-105026000D02*
G01*
X133259000Y-105026000D01*
X133259000Y-103124000D01*
X134361000Y-103124000D01*
X134361000Y-105026000D01*
X134361000Y-105026000D01*
G37*
G36*
X136361000Y-105026000D02*
G01*
X135259000Y-105026000D01*
X135259000Y-103124000D01*
X136361000Y-103124000D01*
X136361000Y-105026000D01*
X136361000Y-105026000D01*
G37*
G36*
X118661000Y-104816000D02*
G01*
X117559000Y-104816000D01*
X117559000Y-103464000D01*
X118661000Y-103464000D01*
X118661000Y-104816000D01*
X118661000Y-104816000D01*
G37*
G36*
X120661000Y-104816000D02*
G01*
X119559000Y-104816000D01*
X119559000Y-103464000D01*
X120661000Y-103464000D01*
X120661000Y-104816000D01*
X120661000Y-104816000D01*
G37*
G36*
X142985442Y-101340518D02*
G01*
X143051627Y-101347037D01*
X143221466Y-101398557D01*
X143377991Y-101482222D01*
X143413729Y-101511552D01*
X143515186Y-101594814D01*
X143598448Y-101696271D01*
X143627778Y-101732009D01*
X143711443Y-101888534D01*
X143762963Y-102058373D01*
X143780359Y-102235000D01*
X143762963Y-102411627D01*
X143711443Y-102581466D01*
X143627778Y-102737991D01*
X143598448Y-102773729D01*
X143515186Y-102875186D01*
X143413729Y-102958448D01*
X143377991Y-102987778D01*
X143221466Y-103071443D01*
X143051627Y-103122963D01*
X142985442Y-103129482D01*
X142919260Y-103136000D01*
X142830740Y-103136000D01*
X142764558Y-103129482D01*
X142698373Y-103122963D01*
X142528534Y-103071443D01*
X142372009Y-102987778D01*
X142336271Y-102958448D01*
X142234814Y-102875186D01*
X142151552Y-102773729D01*
X142122222Y-102737991D01*
X142038557Y-102581466D01*
X141987037Y-102411627D01*
X141969641Y-102235000D01*
X141987037Y-102058373D01*
X142038557Y-101888534D01*
X142122222Y-101732009D01*
X142151552Y-101696271D01*
X142234814Y-101594814D01*
X142336271Y-101511552D01*
X142372009Y-101482222D01*
X142528534Y-101398557D01*
X142698373Y-101347037D01*
X142764558Y-101340518D01*
X142830740Y-101334000D01*
X142919260Y-101334000D01*
X142985442Y-101340518D01*
X142985442Y-101340518D01*
G37*
G36*
X139711000Y-103126000D02*
G01*
X137109000Y-103126000D01*
X137109000Y-102024000D01*
X139711000Y-102024000D01*
X139711000Y-103126000D01*
X139711000Y-103126000D01*
G37*
G36*
X124511000Y-103126000D02*
G01*
X121909000Y-103126000D01*
X121909000Y-102024000D01*
X124511000Y-102024000D01*
X124511000Y-103126000D01*
X124511000Y-103126000D01*
G37*
G36*
X118661000Y-102911000D02*
G01*
X117559000Y-102911000D01*
X117559000Y-101559000D01*
X118661000Y-101559000D01*
X118661000Y-102911000D01*
X118661000Y-102911000D01*
G37*
G36*
X120661000Y-102911000D02*
G01*
X119559000Y-102911000D01*
X119559000Y-101559000D01*
X120661000Y-101559000D01*
X120661000Y-102911000D01*
X120661000Y-102911000D01*
G37*
G36*
X124511000Y-101126000D02*
G01*
X121909000Y-101126000D01*
X121909000Y-100024000D01*
X124511000Y-100024000D01*
X124511000Y-101126000D01*
X124511000Y-101126000D01*
G37*
G36*
X139711000Y-101126000D02*
G01*
X137109000Y-101126000D01*
X137109000Y-100024000D01*
X139711000Y-100024000D01*
X139711000Y-101126000D01*
X139711000Y-101126000D01*
G37*
G36*
X118511000Y-101031000D02*
G01*
X117709000Y-101031000D01*
X117709000Y-99629000D01*
X118511000Y-99629000D01*
X118511000Y-101031000D01*
X118511000Y-101031000D01*
G37*
G36*
X120411000Y-101031000D02*
G01*
X119609000Y-101031000D01*
X119609000Y-99629000D01*
X120411000Y-99629000D01*
X120411000Y-101031000D01*
X120411000Y-101031000D01*
G37*
G36*
X142985443Y-98800519D02*
G01*
X143051627Y-98807037D01*
X143221466Y-98858557D01*
X143377991Y-98942222D01*
X143413729Y-98971552D01*
X143515186Y-99054814D01*
X143598448Y-99156271D01*
X143627778Y-99192009D01*
X143711443Y-99348534D01*
X143762963Y-99518373D01*
X143780359Y-99695000D01*
X143762963Y-99871627D01*
X143711443Y-100041466D01*
X143627778Y-100197991D01*
X143598448Y-100233729D01*
X143515186Y-100335186D01*
X143413729Y-100418448D01*
X143377991Y-100447778D01*
X143221466Y-100531443D01*
X143051627Y-100582963D01*
X142985443Y-100589481D01*
X142919260Y-100596000D01*
X142830740Y-100596000D01*
X142764557Y-100589481D01*
X142698373Y-100582963D01*
X142528534Y-100531443D01*
X142372009Y-100447778D01*
X142336271Y-100418448D01*
X142234814Y-100335186D01*
X142151552Y-100233729D01*
X142122222Y-100197991D01*
X142038557Y-100041466D01*
X141987037Y-99871627D01*
X141969641Y-99695000D01*
X141987037Y-99518373D01*
X142038557Y-99348534D01*
X142122222Y-99192009D01*
X142151552Y-99156271D01*
X142234814Y-99054814D01*
X142336271Y-98971552D01*
X142372009Y-98942222D01*
X142528534Y-98858557D01*
X142698373Y-98807037D01*
X142764557Y-98800519D01*
X142830740Y-98794000D01*
X142919260Y-98794000D01*
X142985443Y-98800519D01*
X142985443Y-98800519D01*
G37*
G36*
X139711000Y-99126000D02*
G01*
X137109000Y-99126000D01*
X137109000Y-98024000D01*
X139711000Y-98024000D01*
X139711000Y-99126000D01*
X139711000Y-99126000D01*
G37*
G36*
X124511000Y-99126000D02*
G01*
X121909000Y-99126000D01*
X121909000Y-98024000D01*
X124511000Y-98024000D01*
X124511000Y-99126000D01*
X124511000Y-99126000D01*
G37*
G36*
X142006000Y-97221000D02*
G01*
X141204000Y-97221000D01*
X141204000Y-95819000D01*
X142006000Y-95819000D01*
X142006000Y-97221000D01*
X142006000Y-97221000D01*
G37*
G36*
X143906000Y-97221000D02*
G01*
X143104000Y-97221000D01*
X143104000Y-95819000D01*
X143906000Y-95819000D01*
X143906000Y-97221000D01*
X143906000Y-97221000D01*
G37*
G36*
X124511000Y-97126000D02*
G01*
X121909000Y-97126000D01*
X121909000Y-96024000D01*
X124511000Y-96024000D01*
X124511000Y-97126000D01*
X124511000Y-97126000D01*
G37*
G36*
X139711000Y-97126000D02*
G01*
X137109000Y-97126000D01*
X137109000Y-96024000D01*
X139711000Y-96024000D01*
X139711000Y-97126000D01*
X139711000Y-97126000D01*
G37*
G36*
X116371000Y-97021000D02*
G01*
X114769000Y-97021000D01*
X114769000Y-96019000D01*
X116371000Y-96019000D01*
X116371000Y-97021000D01*
X116371000Y-97021000D01*
G37*
G36*
X115968213Y-94756249D02*
G01*
X116062652Y-94784897D01*
X116149687Y-94831418D01*
X116225975Y-94894025D01*
X116288582Y-94970313D01*
X116335103Y-95057348D01*
X116363751Y-95151787D01*
X116373424Y-95250000D01*
X116363751Y-95348213D01*
X116335103Y-95442652D01*
X116288582Y-95529687D01*
X116225975Y-95605975D01*
X116149687Y-95668582D01*
X116062652Y-95715103D01*
X115968213Y-95743751D01*
X115894612Y-95751000D01*
X115245388Y-95751000D01*
X115171787Y-95743751D01*
X115077348Y-95715103D01*
X114990313Y-95668582D01*
X114914025Y-95605975D01*
X114851418Y-95529687D01*
X114804897Y-95442652D01*
X114776249Y-95348213D01*
X114766576Y-95250000D01*
X114776249Y-95151787D01*
X114804897Y-95057348D01*
X114851418Y-94970313D01*
X114914025Y-94894025D01*
X114990313Y-94831418D01*
X115077348Y-94784897D01*
X115171787Y-94756249D01*
X115245388Y-94749000D01*
X115894612Y-94749000D01*
X115968213Y-94756249D01*
X115968213Y-94756249D01*
G37*
G36*
X142006000Y-95316000D02*
G01*
X141204000Y-95316000D01*
X141204000Y-93914000D01*
X142006000Y-93914000D01*
X142006000Y-95316000D01*
X142006000Y-95316000D01*
G37*
G36*
X143906000Y-95316000D02*
G01*
X143104000Y-95316000D01*
X143104000Y-93914000D01*
X143906000Y-93914000D01*
X143906000Y-95316000D01*
X143906000Y-95316000D01*
G37*
G36*
X124511000Y-95126000D02*
G01*
X121909000Y-95126000D01*
X121909000Y-94024000D01*
X124511000Y-94024000D01*
X124511000Y-95126000D01*
X124511000Y-95126000D01*
G37*
G36*
X139711000Y-95126000D02*
G01*
X137109000Y-95126000D01*
X137109000Y-94024000D01*
X139711000Y-94024000D01*
X139711000Y-95126000D01*
X139711000Y-95126000D01*
G37*
G36*
X115968213Y-93486249D02*
G01*
X116062652Y-93514897D01*
X116149687Y-93561418D01*
X116225975Y-93624025D01*
X116288582Y-93700313D01*
X116335103Y-93787348D01*
X116363751Y-93881787D01*
X116373424Y-93980000D01*
X116363751Y-94078213D01*
X116335103Y-94172652D01*
X116288582Y-94259687D01*
X116225975Y-94335975D01*
X116149687Y-94398582D01*
X116062652Y-94445103D01*
X115968213Y-94473751D01*
X115894612Y-94481000D01*
X115245388Y-94481000D01*
X115171787Y-94473751D01*
X115077348Y-94445103D01*
X114990313Y-94398582D01*
X114914025Y-94335975D01*
X114851418Y-94259687D01*
X114804897Y-94172652D01*
X114776249Y-94078213D01*
X114766576Y-93980000D01*
X114776249Y-93881787D01*
X114804897Y-93787348D01*
X114851418Y-93700313D01*
X114914025Y-93624025D01*
X114990313Y-93561418D01*
X115077348Y-93514897D01*
X115171787Y-93486249D01*
X115245388Y-93479000D01*
X115894612Y-93479000D01*
X115968213Y-93486249D01*
X115968213Y-93486249D01*
G37*
G36*
X143906000Y-93411000D02*
G01*
X143104000Y-93411000D01*
X143104000Y-92009000D01*
X143906000Y-92009000D01*
X143906000Y-93411000D01*
X143906000Y-93411000D01*
G37*
G36*
X142006000Y-93411000D02*
G01*
X141204000Y-93411000D01*
X141204000Y-92009000D01*
X142006000Y-92009000D01*
X142006000Y-93411000D01*
X142006000Y-93411000D01*
G37*
G36*
X124511000Y-93126000D02*
G01*
X121909000Y-93126000D01*
X121909000Y-92024000D01*
X124511000Y-92024000D01*
X124511000Y-93126000D01*
X124511000Y-93126000D01*
G37*
G36*
X139711000Y-93126000D02*
G01*
X137109000Y-93126000D01*
X137109000Y-92024000D01*
X139711000Y-92024000D01*
X139711000Y-93126000D01*
X139711000Y-93126000D01*
G37*
G36*
X115221000Y-90968588D02*
G01*
X115198164Y-90975515D01*
X115176553Y-90987066D01*
X115157611Y-91002611D01*
X115142066Y-91021553D01*
X115130515Y-91043164D01*
X115123402Y-91066613D01*
X115121000Y-91090999D01*
X115121000Y-91666000D01*
X114119000Y-91666000D01*
X114119000Y-90514000D01*
X115221000Y-90514000D01*
X115221000Y-90968588D01*
X115221000Y-90968588D01*
G37*
G36*
X117021000Y-91666000D02*
G01*
X116019000Y-91666000D01*
X116019000Y-90514000D01*
X117021000Y-90514000D01*
X117021000Y-91666000D01*
X117021000Y-91666000D01*
G37*
G36*
X142006000Y-91506000D02*
G01*
X141204000Y-91506000D01*
X141204000Y-90104000D01*
X142006000Y-90104000D01*
X142006000Y-91506000D01*
X142006000Y-91506000D01*
G37*
G36*
X143906000Y-91506000D02*
G01*
X143104000Y-91506000D01*
X143104000Y-90104000D01*
X143906000Y-90104000D01*
X143906000Y-91506000D01*
X143906000Y-91506000D01*
G37*
G36*
X124511000Y-91126000D02*
G01*
X121909000Y-91126000D01*
X121909000Y-90024000D01*
X124511000Y-90024000D01*
X124511000Y-91126000D01*
X124511000Y-91126000D01*
G37*
G36*
X139711000Y-91126000D02*
G01*
X137109000Y-91126000D01*
X137109000Y-90024000D01*
X139711000Y-90024000D01*
X139711000Y-91126000D01*
X139711000Y-91126000D01*
G37*
G36*
X142011000Y-89601000D02*
G01*
X141209000Y-89601000D01*
X141209000Y-88199000D01*
X142011000Y-88199000D01*
X142011000Y-89601000D01*
X142011000Y-89601000D01*
G37*
G36*
X143911000Y-89601000D02*
G01*
X143109000Y-89601000D01*
X143109000Y-88199000D01*
X143911000Y-88199000D01*
X143911000Y-89601000D01*
X143911000Y-89601000D01*
G37*
G36*
X139711000Y-89126000D02*
G01*
X137109000Y-89126000D01*
X137109000Y-88024000D01*
X139711000Y-88024000D01*
X139711000Y-89126000D01*
X139711000Y-89126000D01*
G37*
G36*
X124511000Y-89126000D02*
G01*
X121909000Y-89126000D01*
X121909000Y-88024000D01*
X124511000Y-88024000D01*
X124511000Y-89126000D01*
X124511000Y-89126000D01*
G37*
G36*
X116821000Y-89116000D02*
G01*
X116169000Y-89116000D01*
X116169000Y-87414000D01*
X116821000Y-87414000D01*
X116821000Y-89116000D01*
X116821000Y-89116000D01*
G37*
G36*
X115071000Y-89116000D02*
G01*
X114419000Y-89116000D01*
X114419000Y-87464000D01*
X115071000Y-87464000D01*
X115071000Y-89116000D01*
X115071000Y-89116000D01*
G37*
G36*
X142011000Y-87696000D02*
G01*
X141209000Y-87696000D01*
X141209000Y-86294000D01*
X142011000Y-86294000D01*
X142011000Y-87696000D01*
X142011000Y-87696000D01*
G37*
G36*
X143911000Y-87696000D02*
G01*
X143109000Y-87696000D01*
X143109000Y-86294000D01*
X143911000Y-86294000D01*
X143911000Y-87696000D01*
X143911000Y-87696000D01*
G37*
G36*
X143911000Y-85791000D02*
G01*
X143109000Y-85791000D01*
X143109000Y-84389000D01*
X143911000Y-84389000D01*
X143911000Y-85791000D01*
X143911000Y-85791000D01*
G37*
G36*
X142011000Y-85791000D02*
G01*
X141209000Y-85791000D01*
X141209000Y-84389000D01*
X142011000Y-84389000D01*
X142011000Y-85791000D01*
X142011000Y-85791000D01*
G37*
G36*
X119490443Y-83560519D02*
G01*
X119556627Y-83567037D01*
X119726466Y-83618557D01*
X119882991Y-83702222D01*
X119918729Y-83731552D01*
X120020186Y-83814814D01*
X120103448Y-83916271D01*
X120132778Y-83952009D01*
X120216443Y-84108534D01*
X120267963Y-84278373D01*
X120285359Y-84455000D01*
X120267963Y-84631627D01*
X120216443Y-84801466D01*
X120132778Y-84957991D01*
X120103448Y-84993729D01*
X120020186Y-85095186D01*
X119918729Y-85178448D01*
X119882991Y-85207778D01*
X119726466Y-85291443D01*
X119556627Y-85342963D01*
X119490442Y-85349482D01*
X119424260Y-85356000D01*
X119335740Y-85356000D01*
X119269558Y-85349482D01*
X119203373Y-85342963D01*
X119033534Y-85291443D01*
X118877009Y-85207778D01*
X118841271Y-85178448D01*
X118739814Y-85095186D01*
X118656552Y-84993729D01*
X118627222Y-84957991D01*
X118543557Y-84801466D01*
X118492037Y-84631627D01*
X118474641Y-84455000D01*
X118492037Y-84278373D01*
X118543557Y-84108534D01*
X118627222Y-83952009D01*
X118656552Y-83916271D01*
X118739814Y-83814814D01*
X118841271Y-83731552D01*
X118877009Y-83702222D01*
X119033534Y-83618557D01*
X119203373Y-83567037D01*
X119269557Y-83560519D01*
X119335740Y-83554000D01*
X119424260Y-83554000D01*
X119490443Y-83560519D01*
X119490443Y-83560519D01*
G37*
G36*
X116771000Y-85146000D02*
G01*
X114369000Y-85146000D01*
X114369000Y-84544000D01*
X116771000Y-84544000D01*
X116771000Y-85146000D01*
X116771000Y-85146000D01*
G37*
G36*
X143911000Y-83886000D02*
G01*
X143109000Y-83886000D01*
X143109000Y-82484000D01*
X143911000Y-82484000D01*
X143911000Y-83886000D01*
X143911000Y-83886000D01*
G37*
G36*
X142011000Y-83886000D02*
G01*
X141209000Y-83886000D01*
X141209000Y-82484000D01*
X142011000Y-82484000D01*
X142011000Y-83886000D01*
X142011000Y-83886000D01*
G37*
G36*
X116771000Y-83096000D02*
G01*
X114369000Y-83096000D01*
X114369000Y-82494000D01*
X116771000Y-82494000D01*
X116771000Y-83096000D01*
X116771000Y-83096000D01*
G37*
G36*
X120281000Y-82816000D02*
G01*
X118479000Y-82816000D01*
X118479000Y-81014000D01*
X120281000Y-81014000D01*
X120281000Y-82816000D01*
X120281000Y-82816000D01*
G37*
G36*
X141961000Y-81931000D02*
G01*
X140659000Y-81931000D01*
X140659000Y-80629000D01*
X141961000Y-80629000D01*
X141961000Y-81931000D01*
X141961000Y-81931000D01*
G37*
G36*
X144161000Y-81931000D02*
G01*
X142859000Y-81931000D01*
X142859000Y-80629000D01*
X144161000Y-80629000D01*
X144161000Y-81931000D01*
X144161000Y-81931000D01*
G37*
M02*
