G04 #@! TF.GenerationSoftware,KiCad,Pcbnew,(5.1.0)-1*
G04 #@! TF.CreationDate,2019-04-04T16:35:18+02:00*
G04 #@! TF.ProjectId,WiFi Environment Sensor Node,57694669-2045-46e7-9669-726f6e6d656e,rev?*
G04 #@! TF.SameCoordinates,Original*
G04 #@! TF.FileFunction,Legend,Top*
G04 #@! TF.FilePolarity,Positive*
%FSLAX46Y46*%
G04 Gerber Fmt 4.6, Leading zero omitted, Abs format (unit mm)*
G04 Created by KiCad (PCBNEW (5.1.0)-1) date 2019-04-04 16:35:18*
%MOMM*%
%LPD*%
G04 APERTURE LIST*
%ADD10C,0.100000*%
%ADD11C,0.120000*%
%ADD12C,0.150000*%
G04 APERTURE END LIST*
D10*
X139400000Y-102819142D02*
X139371428Y-102876285D01*
X139371428Y-102962000D01*
X139400000Y-103047714D01*
X139457142Y-103104857D01*
X139514285Y-103133428D01*
X139628571Y-103162000D01*
X139714285Y-103162000D01*
X139828571Y-103133428D01*
X139885714Y-103104857D01*
X139942857Y-103047714D01*
X139971428Y-102962000D01*
X139971428Y-102904857D01*
X139942857Y-102819142D01*
X139914285Y-102790571D01*
X139714285Y-102790571D01*
X139714285Y-102904857D01*
X139971428Y-102533428D02*
X139371428Y-102533428D01*
X139971428Y-102190571D01*
X139371428Y-102190571D01*
X139971428Y-101904857D02*
X139371428Y-101904857D01*
X139371428Y-101762000D01*
X139400000Y-101676285D01*
X139457142Y-101619142D01*
X139514285Y-101590571D01*
X139628571Y-101562000D01*
X139714285Y-101562000D01*
X139828571Y-101590571D01*
X139885714Y-101619142D01*
X139942857Y-101676285D01*
X139971428Y-101762000D01*
X139971428Y-101904857D01*
X139971428Y-100023571D02*
X139685714Y-100223571D01*
X139971428Y-100366428D02*
X139371428Y-100366428D01*
X139371428Y-100137857D01*
X139400000Y-100080714D01*
X139428571Y-100052142D01*
X139485714Y-100023571D01*
X139571428Y-100023571D01*
X139628571Y-100052142D01*
X139657142Y-100080714D01*
X139685714Y-100137857D01*
X139685714Y-100366428D01*
X139371428Y-99852142D02*
X139371428Y-99509285D01*
X139971428Y-99680714D02*
X139371428Y-99680714D01*
X139942857Y-99337857D02*
X139971428Y-99252142D01*
X139971428Y-99109285D01*
X139942857Y-99052142D01*
X139914285Y-99023571D01*
X139857142Y-98995000D01*
X139800000Y-98995000D01*
X139742857Y-99023571D01*
X139714285Y-99052142D01*
X139685714Y-99109285D01*
X139657142Y-99223571D01*
X139628571Y-99280714D01*
X139600000Y-99309285D01*
X139542857Y-99337857D01*
X139485714Y-99337857D01*
X139428571Y-99309285D01*
X139400000Y-99280714D01*
X139371428Y-99223571D01*
X139371428Y-99080714D01*
X139400000Y-98995000D01*
X139371428Y-97955000D02*
X139971428Y-97755000D01*
X139371428Y-97555000D01*
X139971428Y-97355000D02*
X139371428Y-97355000D01*
X139371428Y-97212142D01*
X139400000Y-97126428D01*
X139457142Y-97069285D01*
X139514285Y-97040714D01*
X139628571Y-97012142D01*
X139714285Y-97012142D01*
X139828571Y-97040714D01*
X139885714Y-97069285D01*
X139942857Y-97126428D01*
X139971428Y-97212142D01*
X139971428Y-97355000D01*
X139914285Y-96412142D02*
X139942857Y-96440714D01*
X139971428Y-96526428D01*
X139971428Y-96583571D01*
X139942857Y-96669285D01*
X139885714Y-96726428D01*
X139828571Y-96755000D01*
X139714285Y-96783571D01*
X139628571Y-96783571D01*
X139514285Y-96755000D01*
X139457142Y-96726428D01*
X139400000Y-96669285D01*
X139371428Y-96583571D01*
X139371428Y-96526428D01*
X139400000Y-96440714D01*
X139428571Y-96412142D01*
X139971428Y-94715000D02*
X139685714Y-94915000D01*
X139971428Y-95057857D02*
X139371428Y-95057857D01*
X139371428Y-94829285D01*
X139400000Y-94772142D01*
X139428571Y-94743571D01*
X139485714Y-94715000D01*
X139571428Y-94715000D01*
X139628571Y-94743571D01*
X139657142Y-94772142D01*
X139685714Y-94829285D01*
X139685714Y-95057857D01*
X139371428Y-94515000D02*
X139971428Y-94115000D01*
X139371428Y-94115000D02*
X139971428Y-94515000D01*
X139371428Y-92532142D02*
X139371428Y-92189285D01*
X139971428Y-92360714D02*
X139371428Y-92360714D01*
X139371428Y-92046428D02*
X139971428Y-91646428D01*
X139371428Y-91646428D02*
X139971428Y-92046428D01*
X139971428Y-90220714D02*
X139371428Y-90220714D01*
X139371428Y-90077857D01*
X139400000Y-89992142D01*
X139457142Y-89935000D01*
X139514285Y-89906428D01*
X139628571Y-89877857D01*
X139714285Y-89877857D01*
X139828571Y-89906428D01*
X139885714Y-89935000D01*
X139942857Y-89992142D01*
X139971428Y-90077857D01*
X139971428Y-90220714D01*
X139371428Y-89706428D02*
X139371428Y-89363571D01*
X139971428Y-89535000D02*
X139371428Y-89535000D01*
X139971428Y-88820714D02*
X139685714Y-89020714D01*
X139971428Y-89163571D02*
X139371428Y-89163571D01*
X139371428Y-88935000D01*
X139400000Y-88877857D01*
X139428571Y-88849285D01*
X139485714Y-88820714D01*
X139571428Y-88820714D01*
X139628571Y-88849285D01*
X139657142Y-88877857D01*
X139685714Y-88935000D01*
X139685714Y-89163571D01*
D11*
X135040000Y-107180000D02*
X135040000Y-108180000D01*
X136740000Y-108180000D02*
X136740000Y-107180000D01*
D10*
X114220000Y-82620000D02*
X114220000Y-82370000D01*
X116920000Y-82470000D02*
X116920000Y-82620000D01*
X116770000Y-82470000D02*
X116920000Y-82470000D01*
X116920000Y-85170000D02*
X116770000Y-85170000D01*
X116920000Y-85170000D02*
X116920000Y-85020000D01*
X114220000Y-85170000D02*
X114220000Y-85020000D01*
X114220000Y-85180000D02*
X114370000Y-85180000D01*
D11*
X122690000Y-87575000D02*
X122080000Y-87575000D01*
X122690000Y-87575000D02*
X122690000Y-79955000D01*
X122690000Y-104195000D02*
X122690000Y-103575000D01*
X124810000Y-104195000D02*
X122690000Y-104195000D01*
X138930000Y-104195000D02*
X136810000Y-104195000D01*
X138930000Y-103575000D02*
X138930000Y-104195000D01*
X138930000Y-79955000D02*
X138930000Y-87575000D01*
X122690000Y-79955000D02*
X138930000Y-79955000D01*
X118050000Y-85785000D02*
X120710000Y-85785000D01*
X118050000Y-83185000D02*
X118050000Y-85785000D01*
X120710000Y-83185000D02*
X120710000Y-85785000D01*
X118050000Y-83185000D02*
X120710000Y-83185000D01*
X118050000Y-81915000D02*
X118050000Y-80585000D01*
X118050000Y-80585000D02*
X119380000Y-80585000D01*
X128905000Y-115700000D02*
X128905000Y-115440000D01*
X128905000Y-113160000D02*
X128905000Y-111390000D01*
X128905000Y-111390000D02*
X129285000Y-111390000D01*
X136525000Y-111390000D02*
X136525000Y-113160000D01*
X136525000Y-115440000D02*
X136525000Y-115700000D01*
X136525000Y-111390000D02*
X136145000Y-111390000D01*
X130785000Y-107050000D02*
X130785000Y-109500000D01*
X134005000Y-108850000D02*
X134005000Y-107050000D01*
X117408478Y-93411522D02*
G75*
G03X112970000Y-95250000I-1838478J-1838478D01*
G01*
X117408478Y-97088478D02*
G75*
G02X112970000Y-95250000I-1838478J1838478D01*
G01*
X117420000Y-97050000D02*
X117420000Y-93450000D01*
X144205000Y-113605000D02*
X144205000Y-114935000D01*
X142875000Y-113605000D02*
X144205000Y-113605000D01*
X141605000Y-113605000D02*
X141605000Y-116265000D01*
X141605000Y-116265000D02*
X139005000Y-116265000D01*
X141605000Y-113605000D02*
X139005000Y-113605000D01*
X139005000Y-113605000D02*
X139005000Y-116265000D01*
X129755000Y-108180000D02*
X129755000Y-107180000D01*
X128055000Y-107180000D02*
X128055000Y-108180000D01*
X136945000Y-107180000D02*
X136945000Y-108180000D01*
X138645000Y-108180000D02*
X138645000Y-107180000D01*
X119610000Y-101385000D02*
X118610000Y-101385000D01*
X118610000Y-103085000D02*
X119610000Y-103085000D01*
X118610000Y-104990000D02*
X119610000Y-104990000D01*
X119610000Y-103290000D02*
X118610000Y-103290000D01*
X137665000Y-109475000D02*
X143065000Y-109475000D01*
X137665000Y-112775000D02*
X143065000Y-112775000D01*
X137665000Y-109475000D02*
X137665000Y-112775000D01*
X140610000Y-80580000D02*
X143410000Y-80580000D01*
X140610000Y-81980000D02*
X143410000Y-81980000D01*
X140610000Y-80580000D02*
X140610000Y-81980000D01*
X141955000Y-89925000D02*
X143155000Y-89925000D01*
X143155000Y-91685000D02*
X141955000Y-91685000D01*
X141955000Y-91830000D02*
X143155000Y-91830000D01*
X143155000Y-93590000D02*
X141955000Y-93590000D01*
X141955000Y-93735000D02*
X143155000Y-93735000D01*
X143155000Y-95495000D02*
X141955000Y-95495000D01*
X143160000Y-85970000D02*
X141960000Y-85970000D01*
X141960000Y-84210000D02*
X143160000Y-84210000D01*
X141960000Y-88020000D02*
X143160000Y-88020000D01*
X143160000Y-89780000D02*
X141960000Y-89780000D01*
X143160000Y-87875000D02*
X141960000Y-87875000D01*
X141960000Y-86115000D02*
X143160000Y-86115000D01*
X141955000Y-95640000D02*
X143155000Y-95640000D01*
X143155000Y-97400000D02*
X141955000Y-97400000D01*
X143160000Y-84065000D02*
X141960000Y-84065000D01*
X141960000Y-82305000D02*
X143160000Y-82305000D01*
X119660000Y-101210000D02*
X118460000Y-101210000D01*
X118460000Y-99450000D02*
X119660000Y-99450000D01*
X120070000Y-114990000D02*
X120070000Y-108530000D01*
X115540000Y-114990000D02*
X118140000Y-114990000D01*
X113610000Y-114990000D02*
X113610000Y-108530000D01*
X115540000Y-108530000D02*
X118140000Y-108530000D01*
X113640000Y-114990000D02*
X113610000Y-114990000D01*
X120070000Y-114990000D02*
X120040000Y-114990000D01*
X120070000Y-108530000D02*
X120040000Y-108530000D01*
X113610000Y-108530000D02*
X113640000Y-108530000D01*
X127055000Y-114990000D02*
X127025000Y-114990000D01*
X120595000Y-114990000D02*
X120625000Y-114990000D01*
X120595000Y-108530000D02*
X120625000Y-108530000D01*
X127025000Y-108530000D02*
X127055000Y-108530000D01*
X125125000Y-114990000D02*
X122525000Y-114990000D01*
X127055000Y-108530000D02*
X127055000Y-114990000D01*
X125125000Y-108530000D02*
X122525000Y-108530000D01*
X120595000Y-108530000D02*
X120595000Y-114990000D01*
X144205000Y-108645000D02*
X142875000Y-108645000D01*
X144205000Y-107315000D02*
X144205000Y-108645000D01*
X144205000Y-106045000D02*
X141545000Y-106045000D01*
X141545000Y-106045000D02*
X141545000Y-98365000D01*
X144205000Y-106045000D02*
X144205000Y-98365000D01*
X144205000Y-98365000D02*
X141545000Y-98365000D01*
D12*
X137747142Y-107846666D02*
X137794761Y-107894285D01*
X137842380Y-108037142D01*
X137842380Y-108132380D01*
X137794761Y-108275238D01*
X137699523Y-108370476D01*
X137604285Y-108418095D01*
X137413809Y-108465714D01*
X137270952Y-108465714D01*
X137080476Y-108418095D01*
X136985238Y-108370476D01*
X136890000Y-108275238D01*
X136842380Y-108132380D01*
X136842380Y-108037142D01*
X136890000Y-107894285D01*
X136937619Y-107846666D01*
X136842380Y-107513333D02*
X136842380Y-106894285D01*
X137223333Y-107227619D01*
X137223333Y-107084761D01*
X137270952Y-106989523D01*
X137318571Y-106941904D01*
X137413809Y-106894285D01*
X137651904Y-106894285D01*
X137747142Y-106941904D01*
X137794761Y-106989523D01*
X137842380Y-107084761D01*
X137842380Y-107370476D01*
X137794761Y-107465714D01*
X137747142Y-107513333D01*
X117128095Y-83272380D02*
X117128095Y-84081904D01*
X117175714Y-84177142D01*
X117223333Y-84224761D01*
X117318571Y-84272380D01*
X117509047Y-84272380D01*
X117604285Y-84224761D01*
X117651904Y-84177142D01*
X117699523Y-84081904D01*
X117699523Y-83272380D01*
X118651904Y-83272380D02*
X118175714Y-83272380D01*
X118128095Y-83748571D01*
X118175714Y-83700952D01*
X118270952Y-83653333D01*
X118509047Y-83653333D01*
X118604285Y-83700952D01*
X118651904Y-83748571D01*
X118699523Y-83843809D01*
X118699523Y-84081904D01*
X118651904Y-84177142D01*
X118604285Y-84224761D01*
X118509047Y-84272380D01*
X118270952Y-84272380D01*
X118175714Y-84224761D01*
X118128095Y-84177142D01*
X112759047Y-81443571D02*
X112901904Y-81491190D01*
X112949523Y-81538809D01*
X112997142Y-81634047D01*
X112997142Y-81776904D01*
X112949523Y-81872142D01*
X112901904Y-81919761D01*
X112806666Y-81967380D01*
X112425714Y-81967380D01*
X112425714Y-80967380D01*
X112759047Y-80967380D01*
X112854285Y-81015000D01*
X112901904Y-81062619D01*
X112949523Y-81157857D01*
X112949523Y-81253095D01*
X112901904Y-81348333D01*
X112854285Y-81395952D01*
X112759047Y-81443571D01*
X112425714Y-81443571D01*
X113425714Y-81967380D02*
X113425714Y-80967380D01*
X113759047Y-81681666D01*
X114092380Y-80967380D01*
X114092380Y-81967380D01*
X114568571Y-81443571D02*
X114901904Y-81443571D01*
X115044761Y-81967380D02*
X114568571Y-81967380D01*
X114568571Y-80967380D01*
X115044761Y-80967380D01*
X115425714Y-81062619D02*
X115473333Y-81015000D01*
X115568571Y-80967380D01*
X115806666Y-80967380D01*
X115901904Y-81015000D01*
X115949523Y-81062619D01*
X115997142Y-81157857D01*
X115997142Y-81253095D01*
X115949523Y-81395952D01*
X115378095Y-81967380D01*
X115997142Y-81967380D01*
X116568571Y-81395952D02*
X116473333Y-81348333D01*
X116425714Y-81300714D01*
X116378095Y-81205476D01*
X116378095Y-81157857D01*
X116425714Y-81062619D01*
X116473333Y-81015000D01*
X116568571Y-80967380D01*
X116759047Y-80967380D01*
X116854285Y-81015000D01*
X116901904Y-81062619D01*
X116949523Y-81157857D01*
X116949523Y-81205476D01*
X116901904Y-81300714D01*
X116854285Y-81348333D01*
X116759047Y-81395952D01*
X116568571Y-81395952D01*
X116473333Y-81443571D01*
X116425714Y-81491190D01*
X116378095Y-81586428D01*
X116378095Y-81776904D01*
X116425714Y-81872142D01*
X116473333Y-81919761D01*
X116568571Y-81967380D01*
X116759047Y-81967380D01*
X116854285Y-81919761D01*
X116901904Y-81872142D01*
X116949523Y-81776904D01*
X116949523Y-81586428D01*
X116901904Y-81491190D01*
X116854285Y-81443571D01*
X116759047Y-81395952D01*
X117568571Y-80967380D02*
X117663809Y-80967380D01*
X117759047Y-81015000D01*
X117806666Y-81062619D01*
X117854285Y-81157857D01*
X117901904Y-81348333D01*
X117901904Y-81586428D01*
X117854285Y-81776904D01*
X117806666Y-81872142D01*
X117759047Y-81919761D01*
X117663809Y-81967380D01*
X117568571Y-81967380D01*
X117473333Y-81919761D01*
X117425714Y-81872142D01*
X117378095Y-81776904D01*
X117330476Y-81586428D01*
X117330476Y-81348333D01*
X117378095Y-81157857D01*
X117425714Y-81062619D01*
X117473333Y-81015000D01*
X117568571Y-80967380D01*
X117448095Y-90467380D02*
X117448095Y-91276904D01*
X117495714Y-91372142D01*
X117543333Y-91419761D01*
X117638571Y-91467380D01*
X117829047Y-91467380D01*
X117924285Y-91419761D01*
X117971904Y-91372142D01*
X118019523Y-91276904D01*
X118019523Y-90467380D01*
X118400476Y-90467380D02*
X119019523Y-90467380D01*
X118686190Y-90848333D01*
X118829047Y-90848333D01*
X118924285Y-90895952D01*
X118971904Y-90943571D01*
X119019523Y-91038809D01*
X119019523Y-91276904D01*
X118971904Y-91372142D01*
X118924285Y-91419761D01*
X118829047Y-91467380D01*
X118543333Y-91467380D01*
X118448095Y-91419761D01*
X118400476Y-91372142D01*
X111793333Y-89217380D02*
X112126666Y-90217380D01*
X112460000Y-89217380D01*
X112793333Y-89693571D02*
X113126666Y-89693571D01*
X113269523Y-90217380D02*
X112793333Y-90217380D01*
X112793333Y-89217380D01*
X113269523Y-89217380D01*
X113698095Y-90217380D02*
X113698095Y-89217380D01*
X114031428Y-89931666D01*
X114364761Y-89217380D01*
X114364761Y-90217380D01*
X115317142Y-90217380D02*
X114840952Y-90217380D01*
X114840952Y-89217380D01*
X116079047Y-89217380D02*
X115888571Y-89217380D01*
X115793333Y-89265000D01*
X115745714Y-89312619D01*
X115650476Y-89455476D01*
X115602857Y-89645952D01*
X115602857Y-90026904D01*
X115650476Y-90122142D01*
X115698095Y-90169761D01*
X115793333Y-90217380D01*
X115983809Y-90217380D01*
X116079047Y-90169761D01*
X116126666Y-90122142D01*
X116174285Y-90026904D01*
X116174285Y-89788809D01*
X116126666Y-89693571D01*
X116079047Y-89645952D01*
X115983809Y-89598333D01*
X115793333Y-89598333D01*
X115698095Y-89645952D01*
X115650476Y-89693571D01*
X115602857Y-89788809D01*
X116793333Y-89217380D02*
X116888571Y-89217380D01*
X116983809Y-89265000D01*
X117031428Y-89312619D01*
X117079047Y-89407857D01*
X117126666Y-89598333D01*
X117126666Y-89836428D01*
X117079047Y-90026904D01*
X117031428Y-90122142D01*
X116983809Y-90169761D01*
X116888571Y-90217380D01*
X116793333Y-90217380D01*
X116698095Y-90169761D01*
X116650476Y-90122142D01*
X116602857Y-90026904D01*
X116555238Y-89836428D01*
X116555238Y-89598333D01*
X116602857Y-89407857D01*
X116650476Y-89312619D01*
X116698095Y-89265000D01*
X116793333Y-89217380D01*
X117983809Y-89550714D02*
X117983809Y-90217380D01*
X117745714Y-89169761D02*
X117507619Y-89884047D01*
X118126666Y-89884047D01*
X118698095Y-89217380D02*
X118793333Y-89217380D01*
X118888571Y-89265000D01*
X118936190Y-89312619D01*
X118983809Y-89407857D01*
X119031428Y-89598333D01*
X119031428Y-89836428D01*
X118983809Y-90026904D01*
X118936190Y-90122142D01*
X118888571Y-90169761D01*
X118793333Y-90217380D01*
X118698095Y-90217380D01*
X118602857Y-90169761D01*
X118555238Y-90122142D01*
X118507619Y-90026904D01*
X118460000Y-89836428D01*
X118460000Y-89598333D01*
X118507619Y-89407857D01*
X118555238Y-89312619D01*
X118602857Y-89265000D01*
X118698095Y-89217380D01*
X117108095Y-87752380D02*
X117108095Y-88561904D01*
X117155714Y-88657142D01*
X117203333Y-88704761D01*
X117298571Y-88752380D01*
X117489047Y-88752380D01*
X117584285Y-88704761D01*
X117631904Y-88657142D01*
X117679523Y-88561904D01*
X117679523Y-87752380D01*
X118584285Y-88085714D02*
X118584285Y-88752380D01*
X118346190Y-87704761D02*
X118108095Y-88419047D01*
X118727142Y-88419047D01*
X111823333Y-86002380D02*
X112156666Y-87002380D01*
X112490000Y-86002380D01*
X112823333Y-86478571D02*
X113156666Y-86478571D01*
X113299523Y-87002380D02*
X112823333Y-87002380D01*
X112823333Y-86002380D01*
X113299523Y-86002380D01*
X113728095Y-87002380D02*
X113728095Y-86002380D01*
X114061428Y-86716666D01*
X114394761Y-86002380D01*
X114394761Y-87002380D01*
X115347142Y-87002380D02*
X114870952Y-87002380D01*
X114870952Y-86002380D01*
X116109047Y-86002380D02*
X115918571Y-86002380D01*
X115823333Y-86050000D01*
X115775714Y-86097619D01*
X115680476Y-86240476D01*
X115632857Y-86430952D01*
X115632857Y-86811904D01*
X115680476Y-86907142D01*
X115728095Y-86954761D01*
X115823333Y-87002380D01*
X116013809Y-87002380D01*
X116109047Y-86954761D01*
X116156666Y-86907142D01*
X116204285Y-86811904D01*
X116204285Y-86573809D01*
X116156666Y-86478571D01*
X116109047Y-86430952D01*
X116013809Y-86383333D01*
X115823333Y-86383333D01*
X115728095Y-86430952D01*
X115680476Y-86478571D01*
X115632857Y-86573809D01*
X116823333Y-86002380D02*
X116918571Y-86002380D01*
X117013809Y-86050000D01*
X117061428Y-86097619D01*
X117109047Y-86192857D01*
X117156666Y-86383333D01*
X117156666Y-86621428D01*
X117109047Y-86811904D01*
X117061428Y-86907142D01*
X117013809Y-86954761D01*
X116918571Y-87002380D01*
X116823333Y-87002380D01*
X116728095Y-86954761D01*
X116680476Y-86907142D01*
X116632857Y-86811904D01*
X116585238Y-86621428D01*
X116585238Y-86383333D01*
X116632857Y-86192857D01*
X116680476Y-86097619D01*
X116728095Y-86050000D01*
X116823333Y-86002380D01*
X117490000Y-86002380D02*
X118109047Y-86002380D01*
X117775714Y-86383333D01*
X117918571Y-86383333D01*
X118013809Y-86430952D01*
X118061428Y-86478571D01*
X118109047Y-86573809D01*
X118109047Y-86811904D01*
X118061428Y-86907142D01*
X118013809Y-86954761D01*
X117918571Y-87002380D01*
X117632857Y-87002380D01*
X117537619Y-86954761D01*
X117490000Y-86907142D01*
X118728095Y-86002380D02*
X118823333Y-86002380D01*
X118918571Y-86050000D01*
X118966190Y-86097619D01*
X119013809Y-86192857D01*
X119061428Y-86383333D01*
X119061428Y-86621428D01*
X119013809Y-86811904D01*
X118966190Y-86907142D01*
X118918571Y-86954761D01*
X118823333Y-87002380D01*
X118728095Y-87002380D01*
X118632857Y-86954761D01*
X118585238Y-86907142D01*
X118537619Y-86811904D01*
X118490000Y-86621428D01*
X118490000Y-86383333D01*
X118537619Y-86192857D01*
X118585238Y-86097619D01*
X118632857Y-86050000D01*
X118728095Y-86002380D01*
X139327380Y-86196904D02*
X140136904Y-86196904D01*
X140232142Y-86149285D01*
X140279761Y-86101666D01*
X140327380Y-86006428D01*
X140327380Y-85815952D01*
X140279761Y-85720714D01*
X140232142Y-85673095D01*
X140136904Y-85625476D01*
X139327380Y-85625476D01*
X139422619Y-85196904D02*
X139375000Y-85149285D01*
X139327380Y-85054047D01*
X139327380Y-84815952D01*
X139375000Y-84720714D01*
X139422619Y-84673095D01*
X139517857Y-84625476D01*
X139613095Y-84625476D01*
X139755952Y-84673095D01*
X140327380Y-85244523D01*
X140327380Y-84625476D01*
X122023571Y-87355476D02*
X122023571Y-87022142D01*
X122547380Y-86879285D02*
X122547380Y-87355476D01*
X121547380Y-87355476D01*
X121547380Y-86879285D01*
X122499761Y-86498333D02*
X122547380Y-86355476D01*
X122547380Y-86117380D01*
X122499761Y-86022142D01*
X122452142Y-85974523D01*
X122356904Y-85926904D01*
X122261666Y-85926904D01*
X122166428Y-85974523D01*
X122118809Y-86022142D01*
X122071190Y-86117380D01*
X122023571Y-86307857D01*
X121975952Y-86403095D01*
X121928333Y-86450714D01*
X121833095Y-86498333D01*
X121737857Y-86498333D01*
X121642619Y-86450714D01*
X121595000Y-86403095D01*
X121547380Y-86307857D01*
X121547380Y-86069761D01*
X121595000Y-85926904D01*
X122547380Y-85498333D02*
X121547380Y-85498333D01*
X121547380Y-85117380D01*
X121595000Y-85022142D01*
X121642619Y-84974523D01*
X121737857Y-84926904D01*
X121880714Y-84926904D01*
X121975952Y-84974523D01*
X122023571Y-85022142D01*
X122071190Y-85117380D01*
X122071190Y-85498333D01*
X122166428Y-84498333D02*
X122166428Y-83736428D01*
X122547380Y-82736428D02*
X122547380Y-83307857D01*
X122547380Y-83022142D02*
X121547380Y-83022142D01*
X121690238Y-83117380D01*
X121785476Y-83212619D01*
X121833095Y-83307857D01*
X121642619Y-82355476D02*
X121595000Y-82307857D01*
X121547380Y-82212619D01*
X121547380Y-81974523D01*
X121595000Y-81879285D01*
X121642619Y-81831666D01*
X121737857Y-81784047D01*
X121833095Y-81784047D01*
X121975952Y-81831666D01*
X122547380Y-82403095D01*
X122547380Y-81784047D01*
X122023571Y-81022142D02*
X122023571Y-81355476D01*
X122547380Y-81355476D02*
X121547380Y-81355476D01*
X121547380Y-80879285D01*
X119051666Y-86067380D02*
X119051666Y-86781666D01*
X119004047Y-86924523D01*
X118908809Y-87019761D01*
X118765952Y-87067380D01*
X118670714Y-87067380D01*
X119432619Y-86067380D02*
X120099285Y-86067380D01*
X119670714Y-87067380D01*
X117039761Y-86817380D02*
X117087380Y-86674523D01*
X117087380Y-86436428D01*
X117039761Y-86341190D01*
X116992142Y-86293571D01*
X116896904Y-86245952D01*
X116801666Y-86245952D01*
X116706428Y-86293571D01*
X116658809Y-86341190D01*
X116611190Y-86436428D01*
X116563571Y-86626904D01*
X116515952Y-86722142D01*
X116468333Y-86769761D01*
X116373095Y-86817380D01*
X116277857Y-86817380D01*
X116182619Y-86769761D01*
X116135000Y-86722142D01*
X116087380Y-86626904D01*
X116087380Y-86388809D01*
X116135000Y-86245952D01*
X117087380Y-85341190D02*
X117087380Y-85817380D01*
X116087380Y-85817380D01*
X116563571Y-85007857D02*
X116563571Y-84674523D01*
X117087380Y-84531666D02*
X117087380Y-85007857D01*
X116087380Y-85007857D01*
X116087380Y-84531666D01*
X116563571Y-84103095D02*
X116563571Y-83769761D01*
X117087380Y-83626904D02*
X117087380Y-84103095D01*
X116087380Y-84103095D01*
X116087380Y-83626904D01*
X117087380Y-83198333D02*
X116087380Y-83198333D01*
X116087380Y-82817380D01*
X116135000Y-82722142D01*
X116182619Y-82674523D01*
X116277857Y-82626904D01*
X116420714Y-82626904D01*
X116515952Y-82674523D01*
X116563571Y-82722142D01*
X116611190Y-82817380D01*
X116611190Y-83198333D01*
X116563571Y-81436428D02*
X116563571Y-81103095D01*
X117087380Y-80960238D02*
X117087380Y-81436428D01*
X116087380Y-81436428D01*
X116087380Y-80960238D01*
X117087380Y-80531666D02*
X116087380Y-80531666D01*
X117087380Y-79960238D01*
X116087380Y-79960238D01*
X137422380Y-114873333D02*
X138136666Y-114873333D01*
X138279523Y-114920952D01*
X138374761Y-115016190D01*
X138422380Y-115159047D01*
X138422380Y-115254285D01*
X137517619Y-114444761D02*
X137470000Y-114397142D01*
X137422380Y-114301904D01*
X137422380Y-114063809D01*
X137470000Y-113968571D01*
X137517619Y-113920952D01*
X137612857Y-113873333D01*
X137708095Y-113873333D01*
X137850952Y-113920952D01*
X138422380Y-114492380D01*
X138422380Y-113873333D01*
X132162380Y-106001904D02*
X132971904Y-106001904D01*
X133067142Y-105954285D01*
X133114761Y-105906666D01*
X133162380Y-105811428D01*
X133162380Y-105620952D01*
X133114761Y-105525714D01*
X133067142Y-105478095D01*
X132971904Y-105430476D01*
X132162380Y-105430476D01*
X133162380Y-104430476D02*
X133162380Y-105001904D01*
X133162380Y-104716190D02*
X132162380Y-104716190D01*
X132305238Y-104811428D01*
X132400476Y-104906666D01*
X132448095Y-105001904D01*
X135557380Y-114487380D02*
X134557380Y-114487380D01*
X135271666Y-114154047D01*
X134557380Y-113820714D01*
X135557380Y-113820714D01*
X135557380Y-113344523D02*
X134557380Y-113344523D01*
X135462142Y-112296904D02*
X135509761Y-112344523D01*
X135557380Y-112487380D01*
X135557380Y-112582619D01*
X135509761Y-112725476D01*
X135414523Y-112820714D01*
X135319285Y-112868333D01*
X135128809Y-112915952D01*
X134985952Y-112915952D01*
X134795476Y-112868333D01*
X134700238Y-112820714D01*
X134605000Y-112725476D01*
X134557380Y-112582619D01*
X134557380Y-112487380D01*
X134605000Y-112344523D01*
X134652619Y-112296904D01*
X134557380Y-111392142D02*
X134557380Y-111868333D01*
X135033571Y-111915952D01*
X134985952Y-111868333D01*
X134938333Y-111773095D01*
X134938333Y-111535000D01*
X134985952Y-111439761D01*
X135033571Y-111392142D01*
X135128809Y-111344523D01*
X135366904Y-111344523D01*
X135462142Y-111392142D01*
X135509761Y-111439761D01*
X135557380Y-111535000D01*
X135557380Y-111773095D01*
X135509761Y-111868333D01*
X135462142Y-111915952D01*
X134652619Y-110963571D02*
X134605000Y-110915952D01*
X134557380Y-110820714D01*
X134557380Y-110582619D01*
X134605000Y-110487380D01*
X134652619Y-110439761D01*
X134747857Y-110392142D01*
X134843095Y-110392142D01*
X134985952Y-110439761D01*
X135557380Y-111011190D01*
X135557380Y-110392142D01*
X135557380Y-109439761D02*
X135557380Y-110011190D01*
X135557380Y-109725476D02*
X134557380Y-109725476D01*
X134700238Y-109820714D01*
X134795476Y-109915952D01*
X134843095Y-110011190D01*
X135557380Y-108963571D02*
X135557380Y-108773095D01*
X135509761Y-108677857D01*
X135462142Y-108630238D01*
X135319285Y-108535000D01*
X135128809Y-108487380D01*
X134747857Y-108487380D01*
X134652619Y-108535000D01*
X134605000Y-108582619D01*
X134557380Y-108677857D01*
X134557380Y-108868333D01*
X134605000Y-108963571D01*
X134652619Y-109011190D01*
X134747857Y-109058809D01*
X134985952Y-109058809D01*
X135081190Y-109011190D01*
X135128809Y-108963571D01*
X135176428Y-108868333D01*
X135176428Y-108677857D01*
X135128809Y-108582619D01*
X135081190Y-108535000D01*
X134985952Y-108487380D01*
X135176428Y-108058809D02*
X135176428Y-107296904D01*
X134557380Y-106915952D02*
X134557380Y-106296904D01*
X134938333Y-106630238D01*
X134938333Y-106487380D01*
X134985952Y-106392142D01*
X135033571Y-106344523D01*
X135128809Y-106296904D01*
X135366904Y-106296904D01*
X135462142Y-106344523D01*
X135509761Y-106392142D01*
X135557380Y-106487380D01*
X135557380Y-106773095D01*
X135509761Y-106868333D01*
X135462142Y-106915952D01*
X135462142Y-105868333D02*
X135509761Y-105820714D01*
X135557380Y-105868333D01*
X135509761Y-105915952D01*
X135462142Y-105868333D01*
X135557380Y-105868333D01*
X134557380Y-105487380D02*
X134557380Y-104868333D01*
X134938333Y-105201666D01*
X134938333Y-105058809D01*
X134985952Y-104963571D01*
X135033571Y-104915952D01*
X135128809Y-104868333D01*
X135366904Y-104868333D01*
X135462142Y-104915952D01*
X135509761Y-104963571D01*
X135557380Y-105058809D01*
X135557380Y-105344523D01*
X135509761Y-105439761D01*
X135462142Y-105487380D01*
X135176428Y-104439761D02*
X135176428Y-103677857D01*
X135033571Y-102868333D02*
X135081190Y-102725476D01*
X135128809Y-102677857D01*
X135224047Y-102630238D01*
X135366904Y-102630238D01*
X135462142Y-102677857D01*
X135509761Y-102725476D01*
X135557380Y-102820714D01*
X135557380Y-103201666D01*
X134557380Y-103201666D01*
X134557380Y-102868333D01*
X134605000Y-102773095D01*
X134652619Y-102725476D01*
X134747857Y-102677857D01*
X134843095Y-102677857D01*
X134938333Y-102725476D01*
X134985952Y-102773095D01*
X135033571Y-102868333D01*
X135033571Y-103201666D01*
X135557380Y-102201666D02*
X134557380Y-102201666D01*
X135271666Y-101868333D01*
X134557380Y-101535000D01*
X135557380Y-101535000D01*
X134557380Y-100582619D02*
X134557380Y-101058809D01*
X135033571Y-101106428D01*
X134985952Y-101058809D01*
X134938333Y-100963571D01*
X134938333Y-100725476D01*
X134985952Y-100630238D01*
X135033571Y-100582619D01*
X135128809Y-100535000D01*
X135366904Y-100535000D01*
X135462142Y-100582619D01*
X135509761Y-100630238D01*
X135557380Y-100725476D01*
X135557380Y-100963571D01*
X135509761Y-101058809D01*
X135462142Y-101106428D01*
X113117380Y-99186904D02*
X113926904Y-99186904D01*
X114022142Y-99139285D01*
X114069761Y-99091666D01*
X114117380Y-98996428D01*
X114117380Y-98805952D01*
X114069761Y-98710714D01*
X114022142Y-98663095D01*
X113926904Y-98615476D01*
X113117380Y-98615476D01*
X113117380Y-97710714D02*
X113117380Y-97901190D01*
X113165000Y-97996428D01*
X113212619Y-98044047D01*
X113355476Y-98139285D01*
X113545952Y-98186904D01*
X113926904Y-98186904D01*
X114022142Y-98139285D01*
X114069761Y-98091666D01*
X114117380Y-97996428D01*
X114117380Y-97805952D01*
X114069761Y-97710714D01*
X114022142Y-97663095D01*
X113926904Y-97615476D01*
X113688809Y-97615476D01*
X113593571Y-97663095D01*
X113545952Y-97710714D01*
X113498333Y-97805952D01*
X113498333Y-97996428D01*
X113545952Y-98091666D01*
X113593571Y-98139285D01*
X113688809Y-98186904D01*
X118812380Y-98369047D02*
X117812380Y-98369047D01*
X117812380Y-98130952D01*
X117860000Y-97988095D01*
X117955238Y-97892857D01*
X118050476Y-97845238D01*
X118240952Y-97797619D01*
X118383809Y-97797619D01*
X118574285Y-97845238D01*
X118669523Y-97892857D01*
X118764761Y-97988095D01*
X118812380Y-98130952D01*
X118812380Y-98369047D01*
X118764761Y-97416666D02*
X118812380Y-97273809D01*
X118812380Y-97035714D01*
X118764761Y-96940476D01*
X118717142Y-96892857D01*
X118621904Y-96845238D01*
X118526666Y-96845238D01*
X118431428Y-96892857D01*
X118383809Y-96940476D01*
X118336190Y-97035714D01*
X118288571Y-97226190D01*
X118240952Y-97321428D01*
X118193333Y-97369047D01*
X118098095Y-97416666D01*
X118002857Y-97416666D01*
X117907619Y-97369047D01*
X117860000Y-97321428D01*
X117812380Y-97226190D01*
X117812380Y-96988095D01*
X117860000Y-96845238D01*
X118812380Y-95892857D02*
X118812380Y-96464285D01*
X118812380Y-96178571D02*
X117812380Y-96178571D01*
X117955238Y-96273809D01*
X118050476Y-96369047D01*
X118098095Y-96464285D01*
X118240952Y-95321428D02*
X118193333Y-95416666D01*
X118145714Y-95464285D01*
X118050476Y-95511904D01*
X118002857Y-95511904D01*
X117907619Y-95464285D01*
X117860000Y-95416666D01*
X117812380Y-95321428D01*
X117812380Y-95130952D01*
X117860000Y-95035714D01*
X117907619Y-94988095D01*
X118002857Y-94940476D01*
X118050476Y-94940476D01*
X118145714Y-94988095D01*
X118193333Y-95035714D01*
X118240952Y-95130952D01*
X118240952Y-95321428D01*
X118288571Y-95416666D01*
X118336190Y-95464285D01*
X118431428Y-95511904D01*
X118621904Y-95511904D01*
X118717142Y-95464285D01*
X118764761Y-95416666D01*
X118812380Y-95321428D01*
X118812380Y-95130952D01*
X118764761Y-95035714D01*
X118717142Y-94988095D01*
X118621904Y-94940476D01*
X118431428Y-94940476D01*
X118336190Y-94988095D01*
X118288571Y-95035714D01*
X118240952Y-95130952D01*
X118764761Y-94559523D02*
X118812380Y-94416666D01*
X118812380Y-94178571D01*
X118764761Y-94083333D01*
X118717142Y-94035714D01*
X118621904Y-93988095D01*
X118526666Y-93988095D01*
X118431428Y-94035714D01*
X118383809Y-94083333D01*
X118336190Y-94178571D01*
X118288571Y-94369047D01*
X118240952Y-94464285D01*
X118193333Y-94511904D01*
X118098095Y-94559523D01*
X118002857Y-94559523D01*
X117907619Y-94511904D01*
X117860000Y-94464285D01*
X117812380Y-94369047D01*
X117812380Y-94130952D01*
X117860000Y-93988095D01*
X117907619Y-93607142D02*
X117860000Y-93559523D01*
X117812380Y-93464285D01*
X117812380Y-93226190D01*
X117860000Y-93130952D01*
X117907619Y-93083333D01*
X118002857Y-93035714D01*
X118098095Y-93035714D01*
X118240952Y-93083333D01*
X118812380Y-93654761D01*
X118812380Y-93035714D01*
X117812380Y-92416666D02*
X117812380Y-92321428D01*
X117860000Y-92226190D01*
X117907619Y-92178571D01*
X118002857Y-92130952D01*
X118193333Y-92083333D01*
X118431428Y-92083333D01*
X118621904Y-92130952D01*
X118717142Y-92178571D01*
X118764761Y-92226190D01*
X118812380Y-92321428D01*
X118812380Y-92416666D01*
X118764761Y-92511904D01*
X118717142Y-92559523D01*
X118621904Y-92607142D01*
X118431428Y-92654761D01*
X118193333Y-92654761D01*
X118002857Y-92607142D01*
X117907619Y-92559523D01*
X117860000Y-92511904D01*
X117812380Y-92416666D01*
X144657380Y-115268333D02*
X145371666Y-115268333D01*
X145514523Y-115315952D01*
X145609761Y-115411190D01*
X145657380Y-115554047D01*
X145657380Y-115649285D01*
X145085952Y-114649285D02*
X145038333Y-114744523D01*
X144990714Y-114792142D01*
X144895476Y-114839761D01*
X144847857Y-114839761D01*
X144752619Y-114792142D01*
X144705000Y-114744523D01*
X144657380Y-114649285D01*
X144657380Y-114458809D01*
X144705000Y-114363571D01*
X144752619Y-114315952D01*
X144847857Y-114268333D01*
X144895476Y-114268333D01*
X144990714Y-114315952D01*
X145038333Y-114363571D01*
X145085952Y-114458809D01*
X145085952Y-114649285D01*
X145133571Y-114744523D01*
X145181190Y-114792142D01*
X145276428Y-114839761D01*
X145466904Y-114839761D01*
X145562142Y-114792142D01*
X145609761Y-114744523D01*
X145657380Y-114649285D01*
X145657380Y-114458809D01*
X145609761Y-114363571D01*
X145562142Y-114315952D01*
X145466904Y-114268333D01*
X145276428Y-114268333D01*
X145181190Y-114315952D01*
X145133571Y-114363571D01*
X145085952Y-114458809D01*
X139295476Y-112847380D02*
X139295476Y-111847380D01*
X139676428Y-111847380D01*
X139771666Y-111895000D01*
X139819285Y-111942619D01*
X139866904Y-112037857D01*
X139866904Y-112180714D01*
X139819285Y-112275952D01*
X139771666Y-112323571D01*
X139676428Y-112371190D01*
X139295476Y-112371190D01*
X140485952Y-111847380D02*
X140676428Y-111847380D01*
X140771666Y-111895000D01*
X140866904Y-111990238D01*
X140914523Y-112180714D01*
X140914523Y-112514047D01*
X140866904Y-112704523D01*
X140771666Y-112799761D01*
X140676428Y-112847380D01*
X140485952Y-112847380D01*
X140390714Y-112799761D01*
X140295476Y-112704523D01*
X140247857Y-112514047D01*
X140247857Y-112180714D01*
X140295476Y-111990238D01*
X140390714Y-111895000D01*
X140485952Y-111847380D01*
X141247857Y-111847380D02*
X141485952Y-112847380D01*
X141676428Y-112133095D01*
X141866904Y-112847380D01*
X142105000Y-111847380D01*
X142485952Y-112323571D02*
X142819285Y-112323571D01*
X142962142Y-112847380D02*
X142485952Y-112847380D01*
X142485952Y-111847380D01*
X142962142Y-111847380D01*
X143962142Y-112847380D02*
X143628809Y-112371190D01*
X143390714Y-112847380D02*
X143390714Y-111847380D01*
X143771666Y-111847380D01*
X143866904Y-111895000D01*
X143914523Y-111942619D01*
X143962142Y-112037857D01*
X143962142Y-112180714D01*
X143914523Y-112275952D01*
X143866904Y-112323571D01*
X143771666Y-112371190D01*
X143390714Y-112371190D01*
X130762142Y-107846666D02*
X130809761Y-107894285D01*
X130857380Y-108037142D01*
X130857380Y-108132380D01*
X130809761Y-108275238D01*
X130714523Y-108370476D01*
X130619285Y-108418095D01*
X130428809Y-108465714D01*
X130285952Y-108465714D01*
X130095476Y-108418095D01*
X130000238Y-108370476D01*
X129905000Y-108275238D01*
X129857380Y-108132380D01*
X129857380Y-108037142D01*
X129905000Y-107894285D01*
X129952619Y-107846666D01*
X130857380Y-106894285D02*
X130857380Y-107465714D01*
X130857380Y-107180000D02*
X129857380Y-107180000D01*
X130000238Y-107275238D01*
X130095476Y-107370476D01*
X130143095Y-107465714D01*
X139652142Y-107846666D02*
X139699761Y-107894285D01*
X139747380Y-108037142D01*
X139747380Y-108132380D01*
X139699761Y-108275238D01*
X139604523Y-108370476D01*
X139509285Y-108418095D01*
X139318809Y-108465714D01*
X139175952Y-108465714D01*
X138985476Y-108418095D01*
X138890238Y-108370476D01*
X138795000Y-108275238D01*
X138747380Y-108132380D01*
X138747380Y-108037142D01*
X138795000Y-107894285D01*
X138842619Y-107846666D01*
X138842619Y-107465714D02*
X138795000Y-107418095D01*
X138747380Y-107322857D01*
X138747380Y-107084761D01*
X138795000Y-106989523D01*
X138842619Y-106941904D01*
X138937857Y-106894285D01*
X139033095Y-106894285D01*
X139175952Y-106941904D01*
X139747380Y-107513333D01*
X139747380Y-106894285D01*
X118943333Y-101092142D02*
X118895714Y-101139761D01*
X118752857Y-101187380D01*
X118657619Y-101187380D01*
X118514761Y-101139761D01*
X118419523Y-101044523D01*
X118371904Y-100949285D01*
X118324285Y-100758809D01*
X118324285Y-100615952D01*
X118371904Y-100425476D01*
X118419523Y-100330238D01*
X118514761Y-100235000D01*
X118657619Y-100187380D01*
X118752857Y-100187380D01*
X118895714Y-100235000D01*
X118943333Y-100282619D01*
X119800476Y-100520714D02*
X119800476Y-101187380D01*
X119562380Y-100139761D02*
X119324285Y-100854047D01*
X119943333Y-100854047D01*
X118943333Y-102997142D02*
X118895714Y-103044761D01*
X118752857Y-103092380D01*
X118657619Y-103092380D01*
X118514761Y-103044761D01*
X118419523Y-102949523D01*
X118371904Y-102854285D01*
X118324285Y-102663809D01*
X118324285Y-102520952D01*
X118371904Y-102330476D01*
X118419523Y-102235238D01*
X118514761Y-102140000D01*
X118657619Y-102092380D01*
X118752857Y-102092380D01*
X118895714Y-102140000D01*
X118943333Y-102187619D01*
X119848095Y-102092380D02*
X119371904Y-102092380D01*
X119324285Y-102568571D01*
X119371904Y-102520952D01*
X119467142Y-102473333D01*
X119705238Y-102473333D01*
X119800476Y-102520952D01*
X119848095Y-102568571D01*
X119895714Y-102663809D01*
X119895714Y-102901904D01*
X119848095Y-102997142D01*
X119800476Y-103044761D01*
X119705238Y-103092380D01*
X119467142Y-103092380D01*
X119371904Y-103044761D01*
X119324285Y-102997142D01*
X140326904Y-109077380D02*
X140326904Y-108077380D01*
X140565000Y-108077380D01*
X140707857Y-108125000D01*
X140803095Y-108220238D01*
X140850714Y-108315476D01*
X140898333Y-108505952D01*
X140898333Y-108648809D01*
X140850714Y-108839285D01*
X140803095Y-108934523D01*
X140707857Y-109029761D01*
X140565000Y-109077380D01*
X140326904Y-109077380D01*
X141850714Y-109077380D02*
X141279285Y-109077380D01*
X141565000Y-109077380D02*
X141565000Y-108077380D01*
X141469761Y-108220238D01*
X141374523Y-108315476D01*
X141279285Y-108363095D01*
X141671904Y-80282380D02*
X141671904Y-79282380D01*
X141910000Y-79282380D01*
X142052857Y-79330000D01*
X142148095Y-79425238D01*
X142195714Y-79520476D01*
X142243333Y-79710952D01*
X142243333Y-79853809D01*
X142195714Y-80044285D01*
X142148095Y-80139523D01*
X142052857Y-80234761D01*
X141910000Y-80282380D01*
X141671904Y-80282380D01*
X142624285Y-79377619D02*
X142671904Y-79330000D01*
X142767142Y-79282380D01*
X143005238Y-79282380D01*
X143100476Y-79330000D01*
X143148095Y-79377619D01*
X143195714Y-79472857D01*
X143195714Y-79568095D01*
X143148095Y-79710952D01*
X142576666Y-80282380D01*
X143195714Y-80282380D01*
X142388333Y-89607380D02*
X142055000Y-89131190D01*
X141816904Y-89607380D02*
X141816904Y-88607380D01*
X142197857Y-88607380D01*
X142293095Y-88655000D01*
X142340714Y-88702619D01*
X142388333Y-88797857D01*
X142388333Y-88940714D01*
X142340714Y-89035952D01*
X142293095Y-89083571D01*
X142197857Y-89131190D01*
X141816904Y-89131190D01*
X143340714Y-89607380D02*
X142769285Y-89607380D01*
X143055000Y-89607380D02*
X143055000Y-88607380D01*
X142959761Y-88750238D01*
X142864523Y-88845476D01*
X142769285Y-88893095D01*
X142388333Y-91512380D02*
X142055000Y-91036190D01*
X141816904Y-91512380D02*
X141816904Y-90512380D01*
X142197857Y-90512380D01*
X142293095Y-90560000D01*
X142340714Y-90607619D01*
X142388333Y-90702857D01*
X142388333Y-90845714D01*
X142340714Y-90940952D01*
X142293095Y-90988571D01*
X142197857Y-91036190D01*
X141816904Y-91036190D01*
X142769285Y-90607619D02*
X142816904Y-90560000D01*
X142912142Y-90512380D01*
X143150238Y-90512380D01*
X143245476Y-90560000D01*
X143293095Y-90607619D01*
X143340714Y-90702857D01*
X143340714Y-90798095D01*
X143293095Y-90940952D01*
X142721666Y-91512380D01*
X143340714Y-91512380D01*
X142388333Y-93417380D02*
X142055000Y-92941190D01*
X141816904Y-93417380D02*
X141816904Y-92417380D01*
X142197857Y-92417380D01*
X142293095Y-92465000D01*
X142340714Y-92512619D01*
X142388333Y-92607857D01*
X142388333Y-92750714D01*
X142340714Y-92845952D01*
X142293095Y-92893571D01*
X142197857Y-92941190D01*
X141816904Y-92941190D01*
X142721666Y-92417380D02*
X143340714Y-92417380D01*
X143007380Y-92798333D01*
X143150238Y-92798333D01*
X143245476Y-92845952D01*
X143293095Y-92893571D01*
X143340714Y-92988809D01*
X143340714Y-93226904D01*
X143293095Y-93322142D01*
X143245476Y-93369761D01*
X143150238Y-93417380D01*
X142864523Y-93417380D01*
X142769285Y-93369761D01*
X142721666Y-93322142D01*
X142393333Y-83892380D02*
X142060000Y-83416190D01*
X141821904Y-83892380D02*
X141821904Y-82892380D01*
X142202857Y-82892380D01*
X142298095Y-82940000D01*
X142345714Y-82987619D01*
X142393333Y-83082857D01*
X142393333Y-83225714D01*
X142345714Y-83320952D01*
X142298095Y-83368571D01*
X142202857Y-83416190D01*
X141821904Y-83416190D01*
X143250476Y-83225714D02*
X143250476Y-83892380D01*
X143012380Y-82844761D02*
X142774285Y-83559047D01*
X143393333Y-83559047D01*
X142393333Y-87702380D02*
X142060000Y-87226190D01*
X141821904Y-87702380D02*
X141821904Y-86702380D01*
X142202857Y-86702380D01*
X142298095Y-86750000D01*
X142345714Y-86797619D01*
X142393333Y-86892857D01*
X142393333Y-87035714D01*
X142345714Y-87130952D01*
X142298095Y-87178571D01*
X142202857Y-87226190D01*
X141821904Y-87226190D01*
X143298095Y-86702380D02*
X142821904Y-86702380D01*
X142774285Y-87178571D01*
X142821904Y-87130952D01*
X142917142Y-87083333D01*
X143155238Y-87083333D01*
X143250476Y-87130952D01*
X143298095Y-87178571D01*
X143345714Y-87273809D01*
X143345714Y-87511904D01*
X143298095Y-87607142D01*
X143250476Y-87654761D01*
X143155238Y-87702380D01*
X142917142Y-87702380D01*
X142821904Y-87654761D01*
X142774285Y-87607142D01*
X142393333Y-85797380D02*
X142060000Y-85321190D01*
X141821904Y-85797380D02*
X141821904Y-84797380D01*
X142202857Y-84797380D01*
X142298095Y-84845000D01*
X142345714Y-84892619D01*
X142393333Y-84987857D01*
X142393333Y-85130714D01*
X142345714Y-85225952D01*
X142298095Y-85273571D01*
X142202857Y-85321190D01*
X141821904Y-85321190D01*
X143250476Y-84797380D02*
X143060000Y-84797380D01*
X142964761Y-84845000D01*
X142917142Y-84892619D01*
X142821904Y-85035476D01*
X142774285Y-85225952D01*
X142774285Y-85606904D01*
X142821904Y-85702142D01*
X142869523Y-85749761D01*
X142964761Y-85797380D01*
X143155238Y-85797380D01*
X143250476Y-85749761D01*
X143298095Y-85702142D01*
X143345714Y-85606904D01*
X143345714Y-85368809D01*
X143298095Y-85273571D01*
X143250476Y-85225952D01*
X143155238Y-85178333D01*
X142964761Y-85178333D01*
X142869523Y-85225952D01*
X142821904Y-85273571D01*
X142774285Y-85368809D01*
X142388333Y-95322380D02*
X142055000Y-94846190D01*
X141816904Y-95322380D02*
X141816904Y-94322380D01*
X142197857Y-94322380D01*
X142293095Y-94370000D01*
X142340714Y-94417619D01*
X142388333Y-94512857D01*
X142388333Y-94655714D01*
X142340714Y-94750952D01*
X142293095Y-94798571D01*
X142197857Y-94846190D01*
X141816904Y-94846190D01*
X142721666Y-94322380D02*
X143388333Y-94322380D01*
X142959761Y-95322380D01*
X142393333Y-81987380D02*
X142060000Y-81511190D01*
X141821904Y-81987380D02*
X141821904Y-80987380D01*
X142202857Y-80987380D01*
X142298095Y-81035000D01*
X142345714Y-81082619D01*
X142393333Y-81177857D01*
X142393333Y-81320714D01*
X142345714Y-81415952D01*
X142298095Y-81463571D01*
X142202857Y-81511190D01*
X141821904Y-81511190D01*
X142964761Y-81415952D02*
X142869523Y-81368333D01*
X142821904Y-81320714D01*
X142774285Y-81225476D01*
X142774285Y-81177857D01*
X142821904Y-81082619D01*
X142869523Y-81035000D01*
X142964761Y-80987380D01*
X143155238Y-80987380D01*
X143250476Y-81035000D01*
X143298095Y-81082619D01*
X143345714Y-81177857D01*
X143345714Y-81225476D01*
X143298095Y-81320714D01*
X143250476Y-81368333D01*
X143155238Y-81415952D01*
X142964761Y-81415952D01*
X142869523Y-81463571D01*
X142821904Y-81511190D01*
X142774285Y-81606428D01*
X142774285Y-81796904D01*
X142821904Y-81892142D01*
X142869523Y-81939761D01*
X142964761Y-81987380D01*
X143155238Y-81987380D01*
X143250476Y-81939761D01*
X143298095Y-81892142D01*
X143345714Y-81796904D01*
X143345714Y-81606428D01*
X143298095Y-81511190D01*
X143250476Y-81463571D01*
X143155238Y-81415952D01*
X118893333Y-99132380D02*
X118560000Y-98656190D01*
X118321904Y-99132380D02*
X118321904Y-98132380D01*
X118702857Y-98132380D01*
X118798095Y-98180000D01*
X118845714Y-98227619D01*
X118893333Y-98322857D01*
X118893333Y-98465714D01*
X118845714Y-98560952D01*
X118798095Y-98608571D01*
X118702857Y-98656190D01*
X118321904Y-98656190D01*
X119369523Y-99132380D02*
X119560000Y-99132380D01*
X119655238Y-99084761D01*
X119702857Y-99037142D01*
X119798095Y-98894285D01*
X119845714Y-98703809D01*
X119845714Y-98322857D01*
X119798095Y-98227619D01*
X119750476Y-98180000D01*
X119655238Y-98132380D01*
X119464761Y-98132380D01*
X119369523Y-98180000D01*
X119321904Y-98227619D01*
X119274285Y-98322857D01*
X119274285Y-98560952D01*
X119321904Y-98656190D01*
X119369523Y-98703809D01*
X119464761Y-98751428D01*
X119655238Y-98751428D01*
X119750476Y-98703809D01*
X119798095Y-98656190D01*
X119845714Y-98560952D01*
X113194761Y-113093333D02*
X113242380Y-112950476D01*
X113242380Y-112712380D01*
X113194761Y-112617142D01*
X113147142Y-112569523D01*
X113051904Y-112521904D01*
X112956666Y-112521904D01*
X112861428Y-112569523D01*
X112813809Y-112617142D01*
X112766190Y-112712380D01*
X112718571Y-112902857D01*
X112670952Y-112998095D01*
X112623333Y-113045714D01*
X112528095Y-113093333D01*
X112432857Y-113093333D01*
X112337619Y-113045714D01*
X112290000Y-112998095D01*
X112242380Y-112902857D01*
X112242380Y-112664761D01*
X112290000Y-112521904D01*
X112242380Y-112188571D02*
X113242380Y-111950476D01*
X112528095Y-111760000D01*
X113242380Y-111569523D01*
X112242380Y-111331428D01*
X113242380Y-110426666D02*
X113242380Y-110998095D01*
X113242380Y-110712380D02*
X112242380Y-110712380D01*
X112385238Y-110807619D01*
X112480476Y-110902857D01*
X112528095Y-110998095D01*
X128279761Y-113093333D02*
X128327380Y-112950476D01*
X128327380Y-112712380D01*
X128279761Y-112617142D01*
X128232142Y-112569523D01*
X128136904Y-112521904D01*
X128041666Y-112521904D01*
X127946428Y-112569523D01*
X127898809Y-112617142D01*
X127851190Y-112712380D01*
X127803571Y-112902857D01*
X127755952Y-112998095D01*
X127708333Y-113045714D01*
X127613095Y-113093333D01*
X127517857Y-113093333D01*
X127422619Y-113045714D01*
X127375000Y-112998095D01*
X127327380Y-112902857D01*
X127327380Y-112664761D01*
X127375000Y-112521904D01*
X127327380Y-112188571D02*
X128327380Y-111950476D01*
X127613095Y-111760000D01*
X128327380Y-111569523D01*
X127327380Y-111331428D01*
X127422619Y-110998095D02*
X127375000Y-110950476D01*
X127327380Y-110855238D01*
X127327380Y-110617142D01*
X127375000Y-110521904D01*
X127422619Y-110474285D01*
X127517857Y-110426666D01*
X127613095Y-110426666D01*
X127755952Y-110474285D01*
X128327380Y-111045714D01*
X128327380Y-110426666D01*
X142541666Y-109097380D02*
X142541666Y-109811666D01*
X142494047Y-109954523D01*
X142398809Y-110049761D01*
X142255952Y-110097380D01*
X142160714Y-110097380D01*
X143541666Y-110097380D02*
X142970238Y-110097380D01*
X143255952Y-110097380D02*
X143255952Y-109097380D01*
X143160714Y-109240238D01*
X143065476Y-109335476D01*
X142970238Y-109383095D01*
M02*
